<svg xmlns="http://www.w3.org/2000/svg" width="538" height="537" viewBox="0 0 538 537" version="1.1">
	<path d="M 247.677 0.998 C 245.025 1.469, 241.425 2.366, 239.677 2.991 C 234.738 4.756, 220.016 6.953, 217.073 6.365 C 215.617 6.073, 211.743 6.738, 208.463 7.842 C 205.183 8.945, 197.325 10.828, 191 12.026 C 179.590 14.188, 174.123 15.932, 164.500 20.481 C 161.750 21.781, 158.037 23.141, 156.250 23.502 C 154.284 23.899, 149.810 26.911, 144.933 31.118 C 140.497 34.945, 135.559 38.338, 133.961 38.658 C 132.264 38.997, 129.955 40.682, 128.410 42.707 C 125.157 46.972, 115.950 53, 112.688 53 C 111.008 53, 108.351 55.052, 103.890 59.796 C 97.865 66.205, 91.405 71.468, 82.701 77.060 C 79.005 79.434, 75.731 83.287, 67.500 94.946 C 65.300 98.062, 59.723 104.498, 55.106 109.249 C 46.608 117.992, 46.101 118.775, 41.993 129.500 C 40.729 132.800, 39.307 136.004, 38.832 136.621 C 37.960 137.754, 33.651 146.555, 30.810 153.004 C 29.961 154.931, 28.925 158.063, 28.508 159.963 C 28.091 161.864, 26.456 165.810, 24.875 168.732 C 23.294 171.654, 22 174.963, 22 176.085 C 22 178.347, 17.409 188.531, 15.179 191.214 C 14.396 192.157, 13.390 194.857, 12.944 197.214 C 12.497 199.571, 11.363 203.300, 10.423 205.500 C 9.338 208.041, 8.793 211.620, 8.931 215.314 C 9.079 219.302, 8.636 221.907, 7.519 223.611 C 6.324 225.435, 6.065 227.248, 6.543 230.435 C 7.026 233.658, 6.762 235.434, 5.517 237.334 C 4.325 239.152, 4.119 240.390, 4.803 241.612 C 5.414 242.705, 5.419 244.457, 4.816 246.416 C 4.294 248.112, 3.885 252.952, 3.907 257.171 C 3.933 262.294, 3.291 266.748, 1.973 270.578 C -0.495 277.751, -0.511 282.081, 1.901 290.145 C 2.946 293.640, 4.099 298.227, 4.462 300.338 C 4.826 302.448, 5.982 305.823, 7.031 307.838 C 8.080 309.852, 9.403 314.780, 9.971 318.788 C 10.539 322.796, 11.649 327.071, 12.438 328.288 C 13.227 329.505, 14.603 334.736, 15.496 339.914 C 16.388 345.092, 17.814 350.674, 18.665 352.319 C 19.650 354.224, 20.003 356.592, 19.638 358.841 C 19.127 361.991, 19.493 362.778, 23.033 366.146 C 26.086 369.051, 27 370.678, 27.001 373.210 C 27.002 375.019, 28.569 379.650, 30.484 383.500 C 32.399 387.350, 33.974 391.231, 33.983 392.124 C 34.035 397.154, 38.699 405.627, 43.989 410.301 C 49.737 415.380, 53.229 419.508, 55.055 423.381 C 56.123 425.647, 58.352 429.075, 60.008 431 C 61.664 432.925, 64.235 437.123, 65.721 440.328 C 68.474 446.266, 71.391 449.092, 72.340 446.742 C 72.654 445.966, 72.872 446.115, 72.921 447.139 C 72.964 448.041, 75.899 450.966, 79.443 453.639 C 82.986 456.313, 86.323 459.693, 86.857 461.152 C 88.103 464.555, 94.941 472.154, 96.109 471.433 C 96.599 471.130, 97 471.284, 97 471.774 C 97 473.850, 104.643 480.054, 110.827 482.997 C 114.497 484.744, 118.963 487.282, 120.750 488.638 C 122.538 489.993, 124 490.770, 124 490.364 C 124 489.958, 125.237 490.789, 126.750 492.211 C 131.236 496.428, 137.118 500, 139.576 500 C 140.840 500, 144.940 502.102, 148.687 504.670 C 152.434 507.239, 157.352 509.738, 159.615 510.222 C 161.878 510.707, 166.137 512.656, 169.081 514.552 C 173.973 517.704, 178.406 518.769, 183.750 518.075 C 184.438 517.985, 185 518.310, 185 518.796 C 185 520.034, 189.942 522.154, 191.125 521.423 C 192.322 520.683, 198.260 523.404, 199.985 525.482 C 200.678 526.317, 202.231 527, 203.435 527 C 204.640 527, 207.847 528.039, 210.563 529.309 C 215.172 531.464, 216.643 531.607, 232.718 531.458 C 244.157 531.352, 250.407 530.907, 251.342 530.131 C 253.169 528.615, 262.173 529.071, 261.575 530.649 C 260.999 532.172, 266.797 533.563, 281.929 535.531 C 294.181 537.125, 299.826 536.781, 306.500 534.033 C 307.600 533.580, 313.675 532.029, 320 530.586 C 340.736 525.856, 345.376 524.333, 351.181 520.349 C 353.568 518.712, 357.086 517.538, 361.181 517.012 C 364.657 516.567, 368.625 515.768, 370 515.237 C 371.375 514.707, 374.601 513.964, 377.168 513.587 C 379.736 513.210, 382.401 512.222, 383.090 511.391 C 383.780 510.560, 385.954 509.083, 387.922 508.109 C 397.328 503.453, 405.735 498.642, 408 496.618 C 409.375 495.390, 412.700 492.836, 415.389 490.943 C 418.078 489.049, 421.501 486.362, 422.995 484.971 C 424.489 483.580, 428.139 480.761, 431.106 478.707 C 434.073 476.652, 438.384 473.272, 440.686 471.194 C 442.989 469.117, 446.961 466.375, 449.513 465.100 C 453.816 462.952, 464.852 452.888, 469.500 446.875 C 472.454 443.053, 480.905 433.189, 485.663 428.010 C 487.953 425.517, 491.496 420.333, 493.536 416.489 C 495.576 412.645, 497.862 408.375, 498.617 407 C 499.371 405.625, 499.997 403.825, 500.009 403 C 500.026 401.830, 500.211 401.785, 500.854 402.797 C 502.042 404.670, 503.856 402.223, 504.481 397.905 C 504.918 394.883, 504.864 394.781, 504.005 397 C 503.040 399.492, 503.039 399.491, 503.519 396.750 C 504.596 390.596, 505.423 388.456, 507.657 386.047 C 510.235 383.267, 510.500 383.554, 509.002 387.495 C 508.351 389.208, 507.569 389.859, 506.752 389.368 C 505.871 388.839, 505.900 389.110, 506.849 390.280 C 508.012 391.714, 508.394 391.749, 509.613 390.530 C 510.390 389.752, 511.321 387.647, 511.680 385.852 C 512.039 384.057, 512.910 381.475, 513.615 380.116 C 514.320 378.756, 514.662 377.262, 514.374 376.797 C 514.087 376.331, 514.404 376.074, 515.080 376.225 C 518.296 376.944, 528.030 351.891, 528.008 342.950 C 528.004 340.998, 528.443 338.957, 528.985 338.415 C 530.403 336.997, 532.191 327.310, 532.067 321.721 C 532.009 319.092, 532.477 315.977, 533.108 314.798 C 533.739 313.620, 534.410 307.445, 534.600 301.078 C 534.789 294.710, 535.407 287.928, 535.972 286.007 C 537.473 280.905, 537.228 258.073, 535.582 249.708 C 534.802 245.744, 533.876 240.373, 533.524 237.773 C 533.172 235.174, 532.530 232.828, 532.097 232.560 C 531.664 232.292, 531.363 226.319, 531.428 219.287 C 531.547 206.404, 530.222 196.177, 528.101 193.621 C 526.771 192.019, 524 181.939, 523.999 178.701 C 523.998 173.467, 517.097 158.765, 513.550 156.441 C 512.199 155.556, 510.852 153.448, 510.505 151.676 C 509.721 147.668, 507.992 144.062, 505.773 141.803 C 504.823 140.837, 503.420 138.573, 502.655 136.773 C 501.890 134.973, 499.347 131.340, 497.003 128.701 C 493.626 124.896, 492.638 122.927, 492.237 119.201 C 491.816 115.296, 490.906 113.621, 486.865 109.310 C 484.189 106.455, 482 103.486, 482 102.712 C 482 100.467, 460.035 80, 457.625 80 C 456.117 80, 449 72.604, 449 71.037 C 449 70.511, 447.101 68.375, 444.779 66.290 C 442.458 64.206, 438.520 60.460, 436.029 57.966 C 433.423 55.357, 429.722 52.856, 427.313 52.077 C 425.011 51.331, 421.024 48.984, 418.454 46.861 C 415.885 44.737, 413.226 43, 412.546 43 C 411.866 43, 410.453 42.042, 409.405 40.870 C 408.357 39.699, 405.592 37.917, 403.260 36.910 C 400.927 35.903, 397.102 33.050, 394.760 30.569 C 390.939 26.524, 389.992 26.036, 385.572 25.833 C 381.909 25.666, 378.057 24.292, 370.572 20.481 C 365.032 17.661, 358.750 14.150, 356.610 12.677 C 353.189 10.322, 348.800 9.341, 344.274 9.920 C 343.600 10.006, 341.575 9.295, 339.774 8.341 C 336.573 6.644, 334.674 6.477, 311.708 5.875 C 306.666 5.742, 304.372 5.347, 305.208 4.754 C 306.054 4.154, 305.552 4.045, 303.750 4.438 C 299.811 5.298, 283.177 5.334, 278.759 4.493 C 276.701 4.101, 275.286 3.347, 275.613 2.817 C 275.941 2.286, 275.338 2.397, 274.272 3.062 C 272.723 4.029, 271.349 3.951, 267.417 2.673 C 260.931 0.563, 253.619 -0.057, 247.677 0.998 M 280.750 1.662 C 281.438 1.940, 282.563 1.940, 283.250 1.662 C 283.938 1.385, 283.375 1.158, 282 1.158 C 280.625 1.158, 280.063 1.385, 280.750 1.662 M 286.750 2.706 C 287.988 2.944, 290.012 2.944, 291.250 2.706 C 292.488 2.467, 291.475 2.272, 289 2.272 C 286.525 2.272, 285.512 2.467, 286.750 2.706 M 282.750 58.781 C 281.788 58.982, 281 59.591, 281 60.135 C 281 61.329, 290.029 60.207, 291.500 58.830 C 292.453 57.937, 286.940 57.907, 282.750 58.781 M 275.015 61.250 C 275.035 62.871, 276.964 65.890, 276.985 64.332 C 276.993 63.689, 277.273 62.452, 277.607 61.582 C 278.005 60.544, 277.662 60, 276.607 60 C 275.723 60, 275.007 60.563, 275.015 61.250 M 225.920 61.982 C 208.505 65.038, 197.253 82.473, 201.061 100.500 C 201.758 103.800, 202.475 109.875, 202.656 114 C 203.096 124.081, 203.230 124.329, 207.091 122.227 C 213.715 118.620, 216.688 114.500, 212.667 114.500 C 212.025 114.500, 211.361 113.525, 211.191 112.333 C 210.970 110.778, 211.677 109.787, 213.691 108.826 C 215.847 107.798, 216.575 106.674, 216.821 103.993 C 216.998 102.072, 217.561 100.072, 218.071 99.550 C 218.582 99.027, 219 97.586, 219 96.347 C 219 91.540, 221.041 89.116, 225.675 88.421 C 228.090 88.059, 231.401 88.030, 233.033 88.357 C 234.699 88.690, 236 88.523, 236 87.975 C 236 87.439, 235.620 87, 235.156 87 C 234.691 87, 233.004 85.863, 231.406 84.474 C 227.659 81.217, 225.377 80.679, 217.448 81.184 C 209.992 81.659, 206.942 83.855, 204.397 90.583 L 202.916 94.500 203.373 90.172 C 204.166 82.667, 209.664 78.762, 219.428 78.770 C 222.872 78.772, 225.818 78.282, 226.235 77.637 C 226.702 76.914, 226.975 77.137, 226.985 78.250 C 227.002 80.265, 228.590 80.602, 229.338 78.750 C 229.622 78.047, 229.877 78.319, 229.921 79.372 C 229.986 80.922, 230.259 81.030, 231.500 80 C 232.536 79.140, 233 79.102, 233 79.878 C 233 81.836, 235.026 81.088, 236.055 78.750 C 236.966 76.683, 237.003 76.721, 236.511 79.223 C 236.094 81.345, 236.303 81.821, 237.456 81.379 C 238.270 81.066, 238.898 80.515, 238.850 80.155 C 238.536 77.786, 239.330 76.943, 239.939 79 C 240.628 81.327, 240.774 81.193, 242.057 77.053 C 243.312 73.002, 243.496 72.823, 244.118 75.053 C 244.543 76.577, 244.838 76.852, 244.900 75.781 C 244.968 74.619, 245.566 74.241, 246.750 74.613 C 248.204 75.070, 248.162 74.883, 246.500 73.504 C 244.846 72.132, 244.793 71.902, 246.194 72.172 C 247.126 72.353, 248.590 71.600, 249.447 70.500 L 251.005 68.500 250.315 70.500 C 249.700 72.284, 249.810 72.350, 251.336 71.109 C 252.849 69.877, 252.982 69.934, 252.492 71.609 C 252.163 72.733, 252.436 72.547, 253.166 71.150 C 254.572 68.460, 254.107 68.049, 245.500 64.363 C 239.481 61.786, 232.130 60.892, 225.920 61.982 M 236.576 66.876 C 235.828 68.088, 241.942 71.236, 243.719 70.554 C 244.662 70.193, 244.952 69.588, 244.417 69.104 C 242.888 67.719, 237.076 66.068, 236.576 66.876 M 285.122 70.524 C 281.065 71.842, 276.952 73.639, 275.982 74.516 C 273.003 77.212, 268.289 87.242, 267.647 92.250 C 266.986 97.409, 267.097 97.581, 269.932 95.810 C 271.427 94.877, 272.179 94.903, 273.419 95.933 C 276.291 98.316, 275.344 100.115, 271.386 99.793 C 268.846 99.587, 267.445 100.006, 266.671 101.202 C 265.234 103.424, 266.508 104.653, 268.518 102.985 C 269.705 102, 270.366 101.966, 271.242 102.842 C 272.753 104.353, 275.338 104.356, 274.405 102.845 C 273.972 102.146, 274.129 101.962, 274.802 102.378 C 276.463 103.404, 275.113 105.890, 272.027 107.486 C 269.819 108.628, 269.077 109.991, 268.148 114.616 C 267.517 117.761, 267 122.254, 267 124.602 C 267 129.166, 268.928 135.336, 269.703 133.250 C 269.958 132.563, 270.804 132, 271.583 132 C 272.445 132, 273 130.973, 273 129.378 C 273 127.425, 273.319 127.005, 274.250 127.733 C 278.261 130.871, 283.064 129.176, 280.417 125.556 C 279.040 123.672, 279 123.681, 279 125.868 C 279 127.113, 278.553 127.842, 278 127.500 C 277.450 127.160, 277 125.836, 277 124.558 C 277 123.074, 276.276 122.044, 275 121.710 C 272.586 121.079, 272.270 116.850, 274.500 115 C 275.325 114.315, 276.018 113.023, 276.040 112.128 C 276.062 111.232, 277.411 108.025, 279.039 105 C 280.668 101.975, 282 98.263, 282 96.750 C 282 93.094, 285.025 90.248, 289.694 89.511 C 298.405 88.135, 299.482 87.599, 299.822 84.468 C 300.022 82.629, 301.718 79.883, 304.281 77.250 C 308.452 72.963, 307.608 71.140, 303.318 75.171 C 302.048 76.364, 300.682 77.015, 300.283 76.616 C 299.884 76.217, 300.072 75.574, 300.700 75.186 C 301.328 74.798, 302.135 73.310, 302.494 71.880 C 303.076 69.561, 302.800 69.210, 299.948 68.640 C 295.098 67.670, 293.139 67.918, 285.122 70.524 M 207.534 90.945 C 207.175 91.525, 207.135 92.410, 207.445 92.911 C 207.755 93.413, 207.222 95.193, 206.261 96.868 C 203.987 100.830, 205.375 102.396, 210.336 101.465 C 214.735 100.640, 216.249 97.452, 213.377 95.062 C 212.345 94.203, 211.500 92.831, 211.500 92.014 C 211.500 90.249, 208.469 89.432, 207.534 90.945 M 257.250 96.662 C 256.563 96.940, 255.995 98.142, 255.989 99.333 C 255.983 100.525, 255.307 103.712, 254.487 106.415 C 253.667 109.118, 253.284 111.593, 253.635 111.915 C 253.986 112.237, 254.497 111.869, 254.771 111.099 C 255.133 110.078, 255.593 110.306, 256.466 111.937 C 257.589 114.035, 257.676 113.934, 257.844 110.339 C 257.942 108.227, 258.196 104.138, 258.408 101.250 C 258.620 98.362, 258.727 96.036, 258.646 96.079 C 258.566 96.122, 257.938 96.385, 257.250 96.662 M 293.589 96.856 C 293.298 97.326, 294.172 97.499, 295.530 97.239 C 296.889 96.979, 298 96.594, 298 96.383 C 298 95.610, 294.101 96.027, 293.589 96.856 M 208.750 97.662 C 209.438 97.940, 210.563 97.940, 211.250 97.662 C 211.938 97.385, 211.375 97.158, 210 97.158 C 208.625 97.158, 208.063 97.385, 208.750 97.662 M 203.195 102.500 C 203.215 104.150, 203.439 104.704, 203.693 103.731 C 203.947 102.758, 203.930 101.408, 203.656 100.731 C 203.382 100.054, 203.175 100.850, 203.195 102.500 M 226.517 103.900 C 225.821 108.018, 226.942 110.858, 230.021 112.781 C 231.430 113.661, 232.509 113.124, 235.926 109.840 C 240.890 105.071, 240.743 103.404, 235.391 103.755 C 229.671 104.129, 227.886 103.197, 231 101.463 L 233.500 100.071 230.338 100.035 C 227.433 100.003, 227.122 100.317, 226.517 103.900 M 290.305 102.791 C 289.647 103.209, 288.627 105.703, 288.037 108.334 C 287.079 112.610, 287.216 113.616, 289.328 117.809 C 291.089 121.306, 292.176 122.411, 293.595 122.150 C 294.643 121.958, 295.812 121.283, 296.194 120.650 C 297.458 118.554, 302.452 112.838, 305.750 109.712 C 307.538 108.018, 309 106.349, 309 106.002 C 309 105.656, 306.313 105.567, 303.029 105.804 C 299.745 106.042, 296.301 105.946, 295.375 105.591 C 293.841 105.002, 293.860 104.819, 295.597 103.504 C 297.390 102.147, 297.327 102.063, 294.500 102.047 C 292.850 102.038, 290.962 102.373, 290.305 102.791 M 217 119.969 C 217 120.501, 217.675 120.678, 218.500 120.362 C 219.325 120.045, 220 119.609, 220 119.393 C 220 119.177, 219.325 119, 218.500 119 C 217.675 119, 217 119.436, 217 119.969 M 215.166 123.876 C 212.737 125.416, 216.293 125.898, 219.537 124.468 L 222.500 123.162 219.500 123.097 C 217.850 123.060, 215.900 123.411, 215.166 123.876 M 209.865 127.113 C 208.416 128.701, 207.336 130, 207.466 130 C 208.632 130, 213.997 127.656, 213.985 127.152 C 213.923 124.540, 212.229 124.524, 209.865 127.113 M 205 126.059 C 205 126.641, 205.450 126.840, 206 126.500 C 206.550 126.160, 207 125.684, 207 125.441 C 207 125.198, 206.550 125, 206 125 C 205.450 125, 205 125.477, 205 126.059 M 205.429 133 C 205.429 134.100, 205.457 135, 205.492 135 C 205.527 135, 206.326 134.100, 207.268 133 C 208.888 131.108, 208.885 131, 207.204 131 C 206.095 131, 205.429 131.751, 205.429 133 M 255.079 132.583 C 255.127 133.748, 255.364 133.985, 255.683 133.188 C 255.972 132.466, 255.936 131.603, 255.604 131.271 C 255.272 130.939, 255.036 131.529, 255.079 132.583 M 277.039 134.189 C 275.918 135.392, 275 137.192, 275 138.189 C 275 141.188, 273.305 140.228, 272.460 136.750 L 271.670 133.500 271.266 136.277 C 270.994 138.148, 271.864 140.683, 273.931 144.042 C 275.619 146.786, 277 149.447, 277 149.956 C 277 152.114, 279.100 151.900, 281.158 149.533 C 282.609 147.865, 284.001 147.183, 285.187 147.559 C 286.411 147.948, 287 147.626, 287 146.567 C 287 145.705, 287.814 145, 288.809 145 C 289.804 145, 291.491 144.362, 292.558 143.581 C 294.422 142.218, 294.389 142.136, 291.708 141.463 C 289.762 140.974, 288.379 141.252, 287.131 142.381 C 286.147 143.272, 284.963 144, 284.500 144 C 282.729 144, 280.159 140.749, 280.737 139.242 C 281.108 138.276, 280.930 137.925, 280.275 138.330 C 279.689 138.692, 278.973 138.372, 278.684 137.619 C 278.151 136.231, 281.766 134, 284.547 134 C 285.346 134, 286 133.550, 286 133 C 286 131.021, 279.143 131.930, 277.039 134.189 M 192.993 146.158 C 182.450 151.926, 179.013 154.083, 176.266 156.657 L 173.500 159.249 178.845 156.560 C 183.042 154.448, 184.759 154.062, 186.845 154.764 C 188.305 155.255, 191.750 155.687, 194.500 155.722 C 197.250 155.758, 198.488 155.578, 197.250 155.324 C 196.012 155.069, 195 154.442, 195 153.930 C 195 153.419, 193.196 153, 190.992 153 C 187.232 153, 187.061 152.876, 188.234 150.997 C 188.922 149.896, 189.938 149.154, 190.492 149.349 C 191.046 149.543, 192.721 148.687, 194.213 147.447 C 195.705 146.206, 197.505 144.985, 198.213 144.733 C 198.921 144.480, 199.272 144.021, 198.993 143.713 C 198.714 143.405, 196.014 144.505, 192.993 146.158 M 202.333 154.043 C 202.333 156.031, 202.930 157.010, 204.373 157.387 C 207.055 158.089, 207.434 157.577, 205.595 155.738 C 204.770 154.913, 204.253 154.072, 204.447 153.869 C 204.640 153.666, 204.244 152.990, 203.566 152.366 C 202.613 151.489, 202.333 151.869, 202.333 154.043 M 286.046 159.927 C 284.816 160.725, 284.995 161.611, 287.208 165.685 C 289.843 170.537, 292.053 172.244, 297.427 173.579 L 300.354 174.306 298.210 171.403 C 297.031 169.806, 294.139 166.359, 291.783 163.742 C 288.561 160.162, 287.140 159.217, 286.046 159.927 M 171.903 161.109 C 167.424 161.773, 161 164.449, 161 165.651 C 161 165.980, 162.463 165.938, 164.250 165.557 C 166.037 165.175, 168.625 164.669, 170 164.431 C 173.445 163.836, 179.342 162.698, 180.250 162.453 C 180.662 162.341, 181.450 162.194, 182 162.125 C 182.550 162.056, 183 161.595, 183 161.099 C 183 160.088, 178.770 160.092, 171.903 161.109 M 266.040 164.063 C 263.213 166.297, 260.400 169.222, 259.789 170.563 C 259.179 171.903, 258.349 173, 257.946 173 C 257.544 173, 256.951 173.685, 256.629 174.523 C 256.158 175.752, 256.414 175.849, 257.957 175.023 C 260.190 173.828, 263.145 173.606, 261.385 174.765 C 260.771 175.169, 259.928 176.625, 259.511 178 C 259.093 179.375, 258.956 180.275, 259.205 180 C 268.289 169.990, 268.485 169.720, 266.125 170.465 C 264.490 170.981, 263.963 170.869, 264.434 170.107 C 264.810 169.498, 265.654 168.999, 266.309 168.997 C 266.964 168.995, 268.486 166.970, 269.690 164.497 C 270.895 162.024, 271.723 160, 271.530 160 C 271.337 160, 268.867 161.828, 266.040 164.063 M 172.225 167.563 C 171.485 168.885, 170.331 169.407, 167 169.925 C 166.485 170.005, 162.037 173.629, 158.500 176.849 C 157.400 177.850, 155.248 179.480, 153.719 180.470 C 152.189 181.461, 151.124 182.457, 151.352 182.685 C 151.579 182.913, 153.456 181.952, 155.522 180.549 C 157.589 179.147, 160.090 178, 161.081 178 C 162.071 178, 163.164 177.544, 163.509 176.986 C 164.955 174.646, 172.574 171.794, 177.899 171.598 C 184.934 171.341, 186.156 168.963, 180.174 167.170 C 174.968 165.611, 173.270 165.694, 172.225 167.563 M 208 168.622 C 208 169.950, 208.272 170.019, 209.498 169.002 C 210.750 167.962, 211.201 168.249, 212.254 170.753 C 213.276 173.184, 213.744 173.500, 214.740 172.433 C 215.723 171.381, 215.446 170.710, 213.349 169.060 C 210.204 166.586, 208 166.406, 208 168.622 M 152.063 172.750 C 147.114 178.311, 143.896 183.718, 146.356 182.340 C 148.327 181.236, 157.931 168, 156.760 168 C 156.502 168, 154.388 170.137, 152.063 172.750 M 150.405 171.250 L 148.500 173.500 150.750 171.595 C 151.988 170.547, 153 169.535, 153 169.345 C 153 168.545, 152.195 169.136, 150.405 171.250 M 144.375 174.870 C 143.344 176.494, 140.611 179.836, 138.302 182.297 C 135.993 184.758, 134.381 187.048, 134.719 187.386 C 135.057 187.723, 134.753 188, 134.044 188 C 132.999 188, 133.002 188.298, 134.061 189.573 C 135.214 190.962, 135.872 190.611, 139.683 186.577 C 142.057 184.064, 144 181.196, 144 180.204 C 144 179.212, 144.540 177.860, 145.200 177.200 C 145.860 176.540, 146.030 176, 145.578 176 C 145.125 176, 145.324 175.314, 146.020 174.476 C 146.716 173.638, 147.052 172.719, 146.767 172.434 C 146.482 172.149, 145.406 173.245, 144.375 174.870 M 252.285 176.920 C 251.066 178.230, 250.266 179.621, 250.506 180.009 C 250.746 180.397, 250.550 182.084, 250.070 183.756 C 249.516 185.688, 249.575 187.175, 250.232 187.832 C 251.628 189.228, 250.583 191.617, 247.963 193.020 C 245.930 194.108, 245.839 193.986, 246.272 190.772 C 246.524 188.903, 247.268 186.368, 247.925 185.140 C 248.582 183.912, 248.980 181.499, 248.810 179.777 L 248.500 176.646 245.644 179.113 C 243.895 180.623, 242.696 182.728, 242.552 184.540 C 242.422 186.168, 241.786 188.625, 241.137 190 L 239.957 192.500 240.374 189.570 C 240.604 187.958, 240.300 185.852, 239.700 184.891 C 238.695 183.283, 238.300 183.386, 234.772 186.180 C 231.995 188.380, 231.216 189.555, 231.948 190.437 C 232.596 191.218, 232.631 192.799, 232.046 194.841 C 230.169 201.386, 237.551 208.512, 248.297 210.528 C 250.333 210.910, 252 211.566, 252 211.986 C 252 213.182, 256.861 212.881, 257.836 211.625 C 259.417 209.590, 261.150 203.589, 261.696 198.263 C 262.285 192.522, 260.936 190.894, 257.231 192.876 C 255.880 193.599, 254.972 193.572, 254.186 192.786 C 253.359 191.959, 252.885 192.135, 252.377 193.461 C 251.902 194.699, 252.435 195.866, 254.094 197.221 C 255.719 198.549, 255.932 199.004, 254.750 198.624 C 253.498 198.223, 253 198.606, 253 199.972 C 253 201.023, 252.543 202.165, 251.984 202.510 C 251.425 202.856, 251.143 203.445, 251.359 203.819 C 251.574 204.194, 251.348 205.400, 250.858 206.500 C 250.269 207.820, 250.145 206.546, 250.492 202.750 L 251.017 197 247.259 196.985 C 245.191 196.976, 242.825 196.538, 242 196.010 C 240.995 195.368, 242.233 195.254, 245.750 195.665 C 250.912 196.268, 251 196.234, 251 193.639 C 251 192.188, 251.450 191, 252 191 C 252.550 191, 253 189.750, 253 188.223 C 253 186.695, 253.582 184.557, 254.294 183.473 C 255.060 182.305, 255.366 180.079, 255.044 178.018 L 254.500 174.537 252.285 176.920 M 137.016 178.970 C 136.386 180.147, 136.071 181.648, 136.316 182.305 C 136.561 182.962, 137.278 182.200, 137.909 180.611 C 139.285 177.145, 138.634 175.947, 137.016 178.970 M 263.229 182.171 C 261.725 183.675, 261.651 187.964, 263.094 190 C 263.923 191.171, 264.059 190.891, 263.712 188.725 C 263.337 186.382, 263.558 186.042, 265.134 186.543 C 266.545 186.990, 267 186.630, 267 185.067 C 267 183.930, 267.024 182.662, 267.053 182.250 C 267.145 180.945, 264.509 180.891, 263.229 182.171 M 173 182.941 C 173 184.673, 174.760 184.994, 176.009 183.489 C 177.038 182.250, 176.889 182, 175.122 182 C 173.955 182, 173 182.423, 173 182.941 M 273.188 187.960 C 271.985 189.587, 271 191.332, 271 191.837 C 271 192.342, 270.325 193.315, 269.500 194 C 268.675 194.685, 268 196.502, 268 198.039 C 268 200.609, 268.261 200.801, 271.250 200.425 C 273.038 200.200, 275.625 199.900, 277 199.758 C 278.500 199.603, 280.550 198.100, 282.123 196 C 284.505 192.823, 284.606 192.339, 283.218 190.750 C 281.284 188.535, 280.853 188.557, 278.230 191 C 277.050 192.100, 275.207 193, 274.136 193 C 272.429 193, 272.329 192.702, 273.328 190.585 C 273.954 189.257, 274.812 188.384, 275.234 188.644 C 275.655 188.905, 276 188.191, 276 187.059 C 276 184.376, 275.787 184.444, 273.188 187.960 M 156 187.012 C 156 187.634, 155.245 188.898, 154.321 189.821 C 152.750 191.393, 152.755 191.522, 154.400 191.838 C 155.366 192.025, 156.360 191.973, 156.610 191.724 C 157.591 190.742, 157.824 187.009, 156.939 186.462 C 156.422 186.143, 156 186.391, 156 187.012 M 159.872 187.750 C 158.629 189.336, 158.664 189.371, 160.250 188.128 C 161.916 186.821, 162.445 186, 161.622 186 C 161.415 186, 160.627 186.787, 159.872 187.750 M 141.557 191.223 C 138.990 194.887, 139.610 196.715, 142.500 194 C 145.004 191.648, 145.828 189, 144.057 189 C 143.538 189, 142.413 190, 141.557 191.223 M 174 191.352 C 174 194.585, 177.009 194.270, 178.166 190.917 C 178.916 188.746, 178.862 188.678, 177.640 190.250 C 176.239 192.052, 174.430 192.731, 175.457 191.069 C 175.774 190.557, 175.575 189.856, 175.016 189.510 C 174.433 189.149, 174 189.934, 174 191.352 M 124.468 192.101 C 123.650 194.678, 125.251 196.529, 127.282 195.354 C 128.340 194.741, 128.518 193.864, 127.911 192.250 C 126.849 189.426, 125.338 189.361, 124.468 192.101 M 150.559 194.532 C 149.491 195.339, 149.041 195.986, 149.559 195.968 C 150.076 195.951, 151.374 195.276, 152.441 194.468 C 153.509 193.661, 153.959 193.014, 153.441 193.032 C 152.924 193.049, 151.626 193.724, 150.559 194.532 M 225.200 194.200 C 224.540 194.860, 224 196.349, 224 197.509 C 224 198.669, 223.339 200.491, 222.532 201.559 C 221.100 203.451, 221.063 203.444, 221.032 201.250 C 220.988 198.141, 219.391 198.429, 218.255 201.750 C 217.233 204.738, 219.197 211.659, 220.285 208.907 C 220.743 207.751, 220.856 207.767, 220.921 208.996 C 221.016 210.797, 229.937 218.935, 231.858 218.973 C 232.809 218.992, 233.026 219.758, 232.583 221.524 C 231.998 223.855, 232.105 223.951, 233.975 222.784 C 235.089 222.088, 236.007 220.615, 236.015 219.509 C 236.028 217.846, 236.197 217.758, 237 219 C 237.777 220.202, 237.972 220.031, 237.985 218.142 C 237.998 216.104, 237.649 215.871, 235.420 216.431 C 232.756 217.099, 232.699 216.702, 234.694 211.381 C 234.924 210.766, 234.190 210.021, 233.062 209.726 C 231.933 209.431, 230.724 208.360, 230.374 207.345 C 230.024 206.330, 228.462 204.329, 226.902 202.897 L 224.066 200.294 225.925 196.647 C 227.782 193.004, 227.466 191.934, 225.200 194.200 M 389.004 194.495 C 388.322 195.317, 388 196.892, 388.288 197.995 C 388.610 199.224, 388.322 200, 387.543 200 C 385.878 200, 386.114 203.837, 387.844 204.905 C 388.959 205.593, 388.931 206.234, 387.677 208.657 L 386.166 211.579 389.558 211.183 C 391.424 210.965, 394.311 211.262, 395.975 211.841 C 399.418 213.042, 400.199 211.598, 397.267 209.453 C 396.067 208.576, 395.627 207.110, 395.836 204.687 C 396.137 201.191, 392.820 193, 391.102 193 C 390.631 193, 389.687 193.673, 389.004 194.495 M 283.612 197.236 L 281.080 200.472 283.290 201.658 C 285.140 202.651, 285.604 202.566, 286.138 201.137 C 286.489 200.199, 287.507 198.824, 288.400 198.083 C 289.641 197.053, 289.756 196.412, 288.890 195.367 C 287.225 193.362, 286.422 193.646, 283.612 197.236 M 127 196.893 C 127 197.384, 127.739 198.069, 128.641 198.416 C 130.014 198.943, 130.076 198.796, 129.019 197.523 C 127.579 195.788, 127 195.607, 127 196.893 M 270 197.559 C 270 198.416, 270.450 198.840, 271 198.500 C 271.550 198.160, 272 197.459, 272 196.941 C 272 196.423, 271.550 196, 271 196 C 270.450 196, 270 196.702, 270 197.559 M 131.414 199.614 C 131.527 200.387, 132.141 201.541, 132.777 202.177 C 133.653 203.053, 134.094 202.919, 134.591 201.624 C 135.313 199.743, 134.668 198.715, 132.575 198.408 C 131.823 198.298, 131.300 198.840, 131.414 199.614 M 234.079 199.583 C 234.127 200.748, 234.364 200.985, 234.683 200.188 C 234.972 199.466, 234.936 198.603, 234.604 198.271 C 234.272 197.939, 234.036 198.529, 234.079 199.583 M 238.622 199.825 C 238.179 201.104, 238.083 202.417, 238.409 202.742 C 239.445 203.779, 240.174 202.250, 239.794 199.836 L 239.426 197.500 238.622 199.825 M 118 202 C 118 202.550, 118.477 203, 119.059 203 C 119.641 203, 119.840 202.550, 119.500 202 C 119.160 201.450, 118.684 201, 118.441 201 C 118.198 201, 118 201.450, 118 202 M 173.285 202.354 C 173.830 203.989, 176 204.305, 176 202.750 C 176 201.971, 175.313 201.333, 174.472 201.333 C 173.632 201.333, 173.098 201.793, 173.285 202.354 M 293.181 203 C 292.660 204.375, 292.293 205.532, 292.367 205.572 C 292.440 205.612, 294.637 206.868, 297.250 208.364 C 303.029 211.674, 303.326 210.342, 298.065 204.711 L 294.129 200.500 293.181 203 M 137.327 206.638 C 137.902 210.902, 141.955 215.141, 145.898 215.600 C 147.950 215.839, 148.571 215.478, 148.571 214.050 C 148.571 212.772, 147.419 211.843, 144.896 211.087 C 142.205 210.281, 140.778 209.051, 139.564 206.493 C 137.439 202.015, 136.710 202.062, 137.327 206.638 M 274 204.666 C 267.929 205.622, 267 206.075, 267 208.078 C 267 209.200, 267.347 209.904, 267.771 209.641 C 268.195 209.379, 270.548 208.866, 273 208.500 C 278.281 207.712, 279 207.346, 279 205.441 C 279 203.995, 278.626 203.937, 274 204.666 M 282.639 204.694 C 281.513 205.820, 281.954 207, 283.500 207 C 284.325 207, 285 206.577, 285 206.059 C 285 204.798, 283.438 203.895, 282.639 204.694 M 211.557 208.908 C 210.883 209.999, 213.876 214.911, 215.250 214.969 C 216.373 215.016, 216.185 214.353, 214.110 210.941 C 213.003 209.120, 211.946 208.278, 211.557 208.908 M 129.500 210 C 129.840 210.550, 130.316 211, 130.559 211 C 130.802 211, 131 210.550, 131 210 C 131 209.450, 130.523 209, 129.941 209 C 129.359 209, 129.160 209.450, 129.500 210 M 131.691 211.643 C 131.347 211.986, 131.951 213.393, 133.033 214.769 C 134.115 216.144, 135.014 217.997, 135.032 218.885 C 135.084 221.514, 137.688 224.217, 139.674 223.704 C 141.022 223.356, 141.090 223.202, 139.935 223.116 C 138.381 223.001, 135 217.159, 135 214.589 C 135 212.950, 132.557 210.776, 131.691 211.643 M 284.796 211.538 C 284.466 211.868, 281.180 212.316, 277.494 212.534 C 267.267 213.140, 267.509 212.937, 266.104 222.113 C 265.423 226.561, 265.019 230.352, 265.206 230.539 C 265.392 230.726, 266.660 231.101, 268.023 231.373 C 269.385 231.644, 272.975 232.358, 276 232.958 C 280.116 233.775, 282.758 233.746, 286.500 232.842 C 293.272 231.207, 293.839 230.472, 288.202 230.638 C 285.616 230.714, 283.024 230.394, 282.443 229.926 C 281.861 229.458, 278.756 228.390, 275.541 227.553 C 272.327 226.716, 269.578 225.911, 269.431 225.765 C 269.285 225.619, 273.066 225.469, 277.833 225.431 C 287.663 225.352, 291.623 224.527, 294.500 221.960 C 295.600 220.979, 297.620 220.023, 298.990 219.838 C 301.886 219.445, 303.026 216.349, 300.291 216.303 C 299.306 216.286, 297.966 216.693, 297.312 217.207 C 296.487 217.857, 295.640 217.205, 294.537 215.071 C 293.435 212.941, 292.215 212, 290.556 212 C 289.240 212, 287.541 211.761, 286.780 211.469 C 286.018 211.177, 285.126 211.208, 284.796 211.538 M 368 212.941 C 368 215.568, 369.334 216.207, 371.505 214.620 C 373.618 213.075, 372.721 211, 369.941 211 C 368.686 211, 368 211.686, 368 212.941 M 362 214 C 362 215.100, 362.408 216, 362.906 216 C 363.405 216, 363.577 215.100, 363.290 214 C 363.002 212.900, 362.594 212, 362.383 212 C 362.173 212, 362 212.900, 362 214 M 285 217.500 C 281.425 218.789, 279.041 219.879, 279.701 219.922 C 281.816 220.059, 292.356 217.044, 293.396 216.004 C 294.991 214.409, 292.185 214.909, 285 217.500 M 120.564 217.293 C 120.940 218.279, 121.499 218.834, 121.807 218.526 C 122.115 218.219, 121.808 217.412, 121.124 216.733 C 120.136 215.753, 120.022 215.868, 120.564 217.293 M 241.120 218.636 C 239.868 221.385, 239.788 221.331, 247.283 222.821 C 251.941 223.747, 252.106 223.696, 253.559 220.886 C 255.045 218.012, 255.039 218, 252.026 218 C 248.313 218, 248.652 218.047, 245.132 217.038 C 242.620 216.317, 242.078 216.533, 241.120 218.636 M 383.991 217.520 L 380.500 218.712 386 219.471 C 389.025 219.889, 392.288 220.644, 393.250 221.150 C 395.311 222.234, 395.522 221.096, 393.716 218.627 C 392.091 216.404, 388.465 215.992, 383.991 217.520 M 220 218.845 C 220 221.558, 223.177 224.028, 225.787 223.345 C 228.279 222.694, 228.885 219, 226.500 219 C 225.675 219, 225 218.550, 225 218 C 225 217.450, 223.875 217, 222.500 217 C 220.737 217, 220 217.544, 220 218.845 M 355.504 219.882 C 354.406 220.331, 351.646 220.489, 349.371 220.233 C 346.113 219.865, 344.793 220.207, 343.160 221.840 C 342.019 222.981, 336.873 225.896, 331.725 228.318 C 322.397 232.706, 318 236.492, 318 240.135 C 318 243.069, 322.213 242.431, 325.500 239 C 327.081 237.350, 328.965 236, 329.687 236 C 330.409 236, 331 235.568, 331 235.040 C 331 234.512, 332.238 234.107, 333.750 234.139 C 340.817 234.288, 346.850 233.252, 349.552 231.426 C 351.173 230.330, 353.850 229.293, 355.500 229.122 C 357.150 228.951, 358.656 228.384, 358.847 227.864 C 359.059 227.286, 359.645 227.274, 360.347 227.833 C 360.981 228.336, 362.909 228.945, 364.632 229.184 C 367.745 229.616, 367.757 229.601, 366.632 226.559 C 366.009 224.877, 365.037 222.721, 364.471 221.769 C 363.267 219.743, 358.365 218.712, 355.504 219.882 M 383 220.729 C 380.802 221.566, 380.033 223.106, 380.015 226.703 C 380.002 229.387, 380.364 229.892, 382.250 229.821 C 384.949 229.718, 389 230.968, 389 231.902 C 389 232.270, 389.900 232.571, 391 232.571 C 392.644 232.571, 393 231.905, 393 228.822 C 393 225.612, 392.463 224.707, 389.268 222.536 C 385.307 219.844, 385.316 219.847, 383 220.729 M 300.002 223.755 C 294.528 227.479, 294.492 228.506, 299.835 228.460 C 304.788 228.418, 305.812 227.249, 304.287 223.375 C 303.514 221.410, 303.439 221.417, 300.002 223.755 M 397.046 223.086 C 397.660 224.233, 398.406 224.927, 398.705 224.629 C 399.529 223.805, 398.209 221, 396.996 221 C 396.257 221, 396.272 221.639, 397.046 223.086 M 115 226.500 C 115 227.325, 115.375 228, 115.833 228 C 116.292 228, 116.667 227.325, 116.667 226.500 C 116.667 225.675, 116.292 225, 115.833 225 C 115.375 225, 115 225.675, 115 226.500 M 231.468 225.866 C 230.577 226.757, 231.005 229.885, 232.112 230.569 C 232.723 230.947, 233.580 230.679, 234.017 229.973 C 234.637 228.969, 235.849 229.179, 239.592 230.938 C 242.223 232.175, 245.774 233.414, 247.483 233.691 C 250.136 234.121, 250.774 233.792, 251.846 231.438 C 253.475 227.863, 252.252 227.036, 245.309 227.015 C 242.454 227.007, 239.867 226.595, 239.561 226.099 C 238.999 225.190, 232.335 224.998, 231.468 225.866 M 110.015 231.750 C 110.007 232.988, 110.450 234, 111 234 C 112.253 234, 112.253 232.939, 111 231 C 110.216 229.787, 110.028 229.931, 110.015 231.750 M 132 230.819 C 132 232.027, 133.897 233.436, 134.591 232.743 C 134.842 232.491, 134.362 231.716, 133.524 231.020 C 132.574 230.231, 132 230.155, 132 230.819 M 226.427 233.521 C 227.487 234.323, 228.599 234.735, 228.898 234.435 C 229.526 233.808, 226.986 232.023, 225.500 232.047 C 224.950 232.056, 225.367 232.720, 226.427 233.521 M 264.573 233.323 C 263.256 234.286, 262.629 236.433, 262.269 241.220 C 261.816 247.231, 261.952 247.850, 263.861 248.456 C 265.009 248.820, 266.756 250.104, 267.743 251.309 C 268.731 252.514, 271.105 254.351, 273.019 255.392 C 274.934 256.432, 277.625 258.262, 279 259.459 C 284.318 264.089, 290.966 267.073, 288 263.500 C 287.315 262.675, 286.192 262, 285.503 262 C 284.125 262, 277 255.806, 277 254.608 C 277 254.196, 279.587 253.927, 282.750 254.011 C 290.850 254.226, 292 254.116, 292 253.125 C 292 252.644, 290.848 252.250, 289.440 252.250 C 287.164 252.250, 281.475 250.311, 276.873 247.966 C 274.876 246.948, 268.123 245.607, 265.770 245.760 C 264.818 245.822, 263.814 245.508, 263.539 245.063 C 262.639 243.607, 278.872 243.141, 297.881 244.078 C 299.190 244.143, 300.590 243.664, 300.991 243.014 C 301.499 242.193, 301.933 242.384, 302.415 243.638 C 303.004 245.173, 303.247 245.223, 304.038 243.972 C 304.550 243.162, 304.976 240.982, 304.985 239.128 C 304.998 236.255, 304.780 235.938, 303.512 236.990 C 302.694 237.669, 298.756 238.413, 294.762 238.644 C 287.281 239.075, 282.369 238.096, 272.014 234.111 C 265.519 231.611, 266.737 231.741, 264.573 233.323 M 363 235.809 C 363 236.254, 363.666 237.491, 364.481 238.559 C 365.763 240.239, 366.097 240.298, 366.966 239 C 367.771 237.796, 367.975 237.994, 368 240 C 368.024 241.983, 368.231 242.190, 369 241 C 370.474 238.720, 370.257 238.275, 366.846 236.573 C 363.212 234.760, 363 234.718, 363 235.809 M 237.499 237.517 C 235.850 238.243, 235.027 238.874, 235.671 238.919 C 236.314 238.963, 237.143 240.374, 237.512 242.053 C 237.892 243.786, 238.683 244.906, 239.341 244.643 C 239.978 244.389, 243.541 243.365, 247.259 242.367 C 250.976 241.369, 253.870 240.110, 253.690 239.570 C 253.510 239.029, 251.211 238.447, 248.581 238.275 C 245.952 238.104, 243.057 237.566, 242.149 237.080 C 241.107 236.522, 239.392 236.683, 237.499 237.517 M 113 237.902 C 113 238.940, 114.902 240.443, 115.466 239.850 C 115.649 239.658, 115.169 238.920, 114.399 238.211 C 113.630 237.501, 113 237.362, 113 237.902 M 352.500 240.740 C 348.798 242.239, 347.459 243.295, 346.759 245.272 C 346.608 245.697, 345.139 246.264, 343.493 246.533 C 337.193 247.560, 336.465 247.996, 334.852 251.708 C 333.945 253.793, 333.374 255.679, 333.584 255.899 C 333.793 256.118, 336.672 254.854, 339.982 253.090 C 343.292 251.326, 346 250.113, 346 250.394 C 346 250.675, 347.238 249.751, 348.750 248.341 C 352.659 244.698, 355.592 243.793, 359.765 244.946 C 361.716 245.484, 363.692 245.690, 364.156 245.403 C 365.720 244.437, 365.016 242.346, 362.750 241.232 C 358.632 239.207, 356.534 239.107, 352.500 240.740 M 382.040 243.181 C 379.984 243.942, 379.818 244.459, 380.421 248.234 C 381.064 252.251, 382.580 254.378, 384.122 253.425 C 384.990 252.888, 390 244.038, 390 243.041 C 390 242.062, 384.819 242.153, 382.040 243.181 M 377 248.667 C 377 252.952, 377.464 252.807, 378.331 248.250 C 378.687 246.383, 378.535 245, 377.975 245 C 377.439 245, 377 246.650, 377 248.667 M 239.303 248.494 C 238.437 249.440, 238.379 250.789, 239.093 253.373 C 240.416 258.165, 242.504 259.204, 246.746 257.181 C 249.687 255.779, 250.236 255.760, 251.044 257.037 C 251.746 258.147, 251.973 257.855, 251.985 255.823 C 251.996 253.812, 251.216 252.756, 248.846 251.573 C 247.112 250.708, 245.235 250, 244.675 250 C 244.115 250, 242.947 249.367, 242.079 248.593 C 240.781 247.437, 240.287 247.420, 239.303 248.494 M 358.813 251.683 C 359.534 251.972, 360.397 251.936, 360.729 251.604 C 361.061 251.272, 360.471 251.036, 359.417 251.079 C 358.252 251.127, 358.015 251.364, 358.813 251.683 M 298.157 252.903 C 297.180 253.507, 297.445 253.887, 299.165 254.348 C 302.603 255.268, 304 255.137, 304 253.893 C 304 253.284, 303.380 253.024, 302.622 253.315 C 301.864 253.606, 300.848 253.448, 300.363 252.963 C 299.879 252.479, 298.887 252.452, 298.157 252.903 M 319.500 253.598 C 317.597 255.057, 317.646 255.098, 320.500 254.431 C 325.127 253.350, 327.032 252.061, 324 252.062 C 322.625 252.063, 320.600 252.754, 319.500 253.598 M 327.646 254.452 C 326.191 255.801, 325 257.307, 325 257.799 C 325 258.292, 324.015 259.134, 322.811 259.671 C 321.560 260.230, 321.067 260.923, 321.662 261.291 C 323.043 262.145, 329.143 257.575, 330.771 254.467 C 332.422 251.316, 331.037 251.310, 327.646 254.452 M 261 255.313 C 261 258.541, 271.133 265.213, 272.551 262.918 C 273.301 261.704, 271.232 259, 269.552 259 C 268.890 259, 267.292 257.875, 266 256.500 C 263.457 253.793, 261 253.209, 261 255.313 M 300 259 C 298.831 259.755, 299.107 259.973, 301.250 259.985 C 302.762 259.993, 304 259.550, 304 259 C 304 257.736, 301.957 257.736, 300 259 M 373.667 258.667 C 372.319 260.014, 373.056 262.960, 375 264 C 376.683 264.901, 377 264.760, 377 263.117 C 377 259.172, 375.356 256.977, 373.667 258.667 M 353.122 261.904 C 351.147 263.154, 352.484 264.697, 355.988 265.212 C 358.341 265.557, 359 265.277, 359 263.934 C 359 261.421, 355.689 260.278, 353.122 261.904 M 262.017 264.282 C 261.990 268.791, 264.639 273.810, 268.190 275.974 C 272.046 278.326, 276 278.634, 276 276.583 C 276 275.804, 276.407 275.017, 276.905 274.833 C 277.402 274.650, 277.965 273.375, 278.155 272 C 278.447 269.887, 278.134 269.540, 276.137 269.758 C 271.467 270.268, 266.256 268.093, 264.106 264.735 L 262.034 261.500 262.017 264.282 M 349 264.500 C 348.282 265.365, 348.185 266, 348.771 266 C 349.329 266, 350.045 265.325, 350.362 264.500 C 350.678 263.675, 350.781 263, 350.591 263 C 350.401 263, 349.685 263.675, 349 264.500 M 330.872 265.664 C 329.617 267.186, 329.713 267.217, 332 266.028 C 335.352 264.286, 335.605 264, 333.789 264 C 332.940 264, 331.627 264.749, 330.872 265.664 M 292 266.795 C 292 267.713, 297.101 270, 299.149 270 C 301.031 270, 299.843 268.177, 297.593 267.613 C 296.269 267.280, 294.469 266.733, 293.593 266.397 C 292.717 266.061, 292 266.240, 292 266.795 M 371.667 266.667 C 371.300 267.033, 371 268.608, 371 270.167 C 371 273.739, 373.189 273.884, 375.035 270.435 C 376.211 268.236, 376.200 267.739, 374.954 266.950 C 373.205 265.844, 372.546 265.787, 371.667 266.667 M 240 269.987 C 240 271.812, 242.309 273.358, 243.402 272.264 C 244.642 271.025, 243.927 269.214, 242 268.710 C 240.547 268.330, 240 268.680, 240 269.987 M 247.729 268.604 C 247.328 269.005, 247.041 270.946, 247.090 272.917 L 247.180 276.500 248.143 273.158 C 249.158 269.631, 248.954 267.380, 247.729 268.604 M 301 269.917 C 301 271.574, 300.374 272, 297.941 272 C 296.259 272, 295.122 272.389, 295.416 272.864 C 295.709 273.339, 297.785 273.727, 300.028 273.727 C 303.807 273.727, 304.084 273.541, 303.803 271.191 C 303.431 268.077, 301 266.972, 301 269.917 M 322.500 269 C 322.160 269.550, 321.064 270, 320.063 270 C 318.031 270, 315.625 272.407, 316.155 273.910 C 316.578 275.108, 325.205 270.884, 325.765 269.205 C 326.248 267.757, 323.380 267.576, 322.500 269 M 339 271.548 C 337.625 272.299, 335.375 273.154, 334 273.448 C 330.249 274.250, 329.323 275.170, 328.513 278.899 L 327.776 282.299 331.105 278.899 C 332.936 277.030, 334.816 275.622, 335.282 275.772 C 335.749 275.921, 337.408 275.134, 338.970 274.022 C 340.531 272.910, 342.302 272, 342.904 272 C 343.507 272, 344 271.550, 344 271 C 344 269.666, 342.056 269.879, 339 271.548 M 284 271.999 C 284 273.405, 286.826 273.914, 287.841 272.691 C 288.555 271.830, 288.160 271.460, 286.414 271.356 C 285.086 271.276, 284 271.566, 284 271.999 M 291.500 272 C 291.840 272.550, 292.541 273, 293.059 273 C 293.577 273, 294 272.550, 294 272 C 294 271.450, 293.298 271, 292.441 271 C 291.584 271, 291.160 271.450, 291.500 272 M 261 278.960 C 261 283.061, 261.466 284.352, 263.697 286.420 C 265.180 287.795, 267.768 289.426, 269.447 290.043 C 275.953 292.435, 279.447 294.292, 278.250 294.720 C 277.563 294.966, 277 295.865, 277 296.718 C 277 297.772, 277.665 297.424, 279.073 295.635 C 280.696 293.571, 282.014 293, 285.156 293 C 287.922 293, 289.036 292.612, 288.747 291.750 C 288.517 291.063, 287.692 290.478, 286.914 290.450 C 286.136 290.423, 282.824 289.384, 279.554 288.141 C 276.284 286.898, 272.684 286.102, 271.554 286.371 C 270.424 286.641, 268.150 286.285, 266.500 285.581 L 263.500 284.301 268.750 283.557 C 271.637 283.147, 274 282.405, 274 281.906 C 274 281.066, 272.525 280.601, 270.750 280.882 C 270.337 280.947, 270 280.652, 270 280.227 C 270 279.802, 268.425 278.607, 266.500 277.570 C 264.575 276.533, 263 275.306, 263 274.843 C 263 274.379, 262.550 274, 262 274 C 261.450 274, 261 276.232, 261 278.960 M 294.550 277.879 C 295.957 279.180, 303 280.250, 303 279.162 C 303 278.087, 299.592 277.033, 296.050 277.014 C 294.589 277.006, 293.983 277.355, 294.550 277.879 M 318.750 279.299 C 316.661 280.125, 316 281.061, 316 283.193 C 316 284.737, 316.342 286, 316.760 286 C 318.166 286, 323 280.934, 323 279.460 C 323 277.801, 322.581 277.785, 318.750 279.299 M 348 284.441 C 348 285.848, 348.450 287, 349 287 C 349.550 287, 350 286.127, 350 285.059 C 350 283.991, 349.550 282.840, 349 282.500 C 348.433 282.149, 348 282.990, 348 284.441 M 342.648 284.709 C 341.080 285.533, 338.438 286.421, 336.777 286.682 C 333.139 287.256, 326 290.845, 326 292.101 C 326 293.394, 328.482 293.173, 337.219 291.101 C 341.464 290.095, 345.136 289.469, 345.378 289.711 C 345.619 289.953, 346.143 289.124, 346.541 287.870 C 346.990 286.456, 346.832 285.444, 346.126 285.209 C 345.500 285, 345.242 284.418, 345.553 283.915 C 346.227 282.823, 346.255 282.816, 342.648 284.709 M 243.668 284.734 C 242.687 286.332, 242.570 291.958, 243.513 292.121 C 244.706 292.327, 246.023 285.132, 244.917 284.449 C 244.489 284.184, 243.927 284.312, 243.668 284.734 M 298.337 286.191 C 300.351 286.925, 301.498 286.902, 302.288 286.113 C 303.104 285.296, 302.350 285.021, 299.450 285.079 C 295.544 285.157, 295.532 285.169, 298.337 286.191 M 259 288.500 C 259 289.325, 259.730 290, 260.622 290 C 261.951 290, 262.020 289.729, 261 288.500 C 260.315 287.675, 259.585 287, 259.378 287 C 259.170 287, 259 287.675, 259 288.500 M 340.696 294.055 C 340.155 296.123, 340.478 296.264, 343.246 295.168 C 344.877 294.522, 344.867 294.398, 343.098 293.294 C 341.505 292.299, 341.123 292.420, 340.696 294.055 M 292.803 296.651 C 290.316 299.138, 287.297 299.883, 277.750 300.362 C 275.365 300.482, 273.588 302, 275.833 302 C 276.292 302, 276.667 302.675, 276.667 303.500 C 276.667 304.960, 273.928 305.594, 272.742 304.409 C 272.417 304.083, 272.748 301.833, 273.477 299.409 L 274.804 295 267.652 295.015 C 263.718 295.024, 259.903 295.409, 259.174 295.871 C 257.651 296.837, 256.290 304.935, 257.618 305.128 C 258.103 305.198, 259.625 305.450, 261 305.688 C 262.375 305.925, 266.543 306.284, 270.263 306.485 C 276.341 306.813, 277.333 306.591, 280.065 304.292 C 282.819 301.974, 283.704 301.783, 289.500 302.248 C 294.128 302.619, 296.463 302.364, 297.948 301.324 C 299.754 300.059, 300 300.073, 300 301.443 C 300 303.469, 301.612 303.452, 302.393 301.418 C 303.316 299.013, 303.118 295.809, 302.085 296.447 C 301.582 296.758, 301.020 296.629, 300.835 296.161 C 300.651 295.693, 299.351 295.028, 297.947 294.685 C 296.013 294.212, 294.766 294.689, 292.803 296.651 M 298.166 296.876 C 297.092 297.557, 297.141 297.840, 298.416 298.329 C 299.418 298.714, 300 298.398, 300 297.469 C 300 295.769, 299.942 295.750, 298.166 296.876 M 330.028 300.549 C 328.119 301.897, 325.869 303.014, 325.028 303.032 C 323.116 303.072, 320 305.377, 320 306.752 C 320 307.320, 321.603 306.967, 323.562 305.968 C 325.521 304.970, 328.381 303.714, 329.919 303.178 C 331.456 302.642, 332.961 301.258, 333.263 300.102 C 333.565 298.946, 333.742 298.022, 333.656 298.049 C 333.570 298.076, 331.938 299.201, 330.028 300.549 M 239.500 305 C 239.125 306.183, 239.042 307.376, 239.317 307.651 C 239.592 307.926, 240.125 307.183, 240.500 306 C 240.875 304.817, 240.958 303.624, 240.683 303.349 C 240.408 303.074, 239.875 303.817, 239.500 305 M 311 307.059 C 311 307.641, 311.450 307.840, 312 307.500 C 312.550 307.160, 313 306.684, 313 306.441 C 313 306.198, 312.550 306, 312 306 C 311.450 306, 311 306.477, 311 307.059 M 315.872 308.750 C 314.629 310.336, 314.664 310.371, 316.250 309.128 C 317.212 308.373, 318 307.585, 318 307.378 C 318 306.555, 317.179 307.084, 315.872 308.750 M 300 311.667 C 300 316, 300.608 315.808, 301.319 311.250 C 301.597 309.462, 301.415 308, 300.913 308 C 300.411 308, 300 309.650, 300 311.667 M 297.091 310.390 C 296.356 311.276, 296.035 312, 296.378 312 C 296.720 312, 296.100 312.900, 295 314 C 293.900 315.100, 293 316.450, 293 317 C 293 318.157, 296.386 318.157, 300 317 C 302.299 316.264, 302.326 316.191, 300.332 316.100 C 299.139 316.045, 297.458 315.729, 296.596 315.399 C 295.264 314.887, 295.348 314.539, 297.156 313.074 C 298.327 312.127, 299.091 310.773, 298.855 310.066 C 298.532 309.096, 298.099 309.175, 297.091 310.390 M 311 310 C 311 310.550, 311.423 311, 311.941 311 C 312.459 311, 313.160 310.550, 313.500 310 C 313.840 309.450, 313.416 309, 312.559 309 C 311.702 309, 311 309.450, 311 310 M 255.769 314.267 C 254.907 314.945, 253.901 316.512, 253.534 317.750 C 252.903 319.873, 253.149 320, 257.868 320 C 260.619 320, 264.024 320.439, 265.435 320.975 C 267.470 321.749, 268 321.646, 268 320.475 C 268 318.653, 267.996 318.653, 271.826 320.563 C 274.881 322.087, 275.061 322.045, 278.980 318.896 C 283.615 315.171, 283.878 314.716, 280.697 315.925 C 278.464 316.774, 270.020 316.674, 268.333 315.778 C 267.875 315.535, 265.722 315.241, 263.548 315.123 C 261.375 315.006, 259.088 314.488, 258.466 313.972 C 257.746 313.375, 256.767 313.482, 255.769 314.267 M 331.277 314.518 C 330.085 315.353, 328.667 315.916, 328.125 315.768 C 327.584 315.621, 326.433 316.400, 325.568 317.500 L 323.995 319.500 324.579 317.500 C 325.126 315.627, 325.072 315.611, 323.721 317.250 C 321.769 319.620, 320.687 319.474, 322.204 317.045 C 323.942 314.263, 322.682 313.596, 319.143 315.426 C 317.469 316.292, 314.952 317, 313.550 317 C 311.236 317, 311 317.375, 311 321.059 C 311 324.027, 311.332 324.913, 312.236 324.354 C 313.887 323.334, 320 323.060, 320 324.006 C 320 324.417, 317.750 325.722, 315 326.905 C 310.928 328.656, 310 329.515, 310 331.528 C 310 333.843, 309.667 334, 304.750 334.001 C 301.863 334.002, 295.706 334.670, 291.069 335.487 C 286.431 336.303, 282.585 336.865, 282.521 336.735 C 282.457 336.606, 281.873 335.262, 281.224 333.750 C 279.948 330.779, 277.893 330.330, 273.398 332.039 C 271.339 332.822, 270.465 332.760, 269.848 331.789 C 269.237 330.826, 269.027 330.925, 269.015 332.183 C 268.998 334.032, 266.275 335.187, 261.206 335.496 C 258.648 335.652, 257.991 335.340, 258.265 334.099 C 258.460 333.219, 259.080 332.588, 259.643 332.694 C 260.206 332.801, 260.667 332.265, 260.667 331.503 C 260.667 330.479, 260.009 330.634, 258.149 332.097 C 256.376 333.492, 254.805 333.896, 252.839 333.465 C 250.208 332.887, 250.010 333.086, 249.396 336.926 C 249.038 339.167, 248.389 341, 247.954 341 C 247.519 341, 246.492 341.258, 245.672 341.572 C 243.595 342.369, 242.454 338.365, 244.167 336.288 C 245.369 334.831, 245.267 334.797, 243.124 335.939 C 241.412 336.851, 240.116 336.918, 238.494 336.179 C 235.519 334.824, 215.522 335.641, 212.154 337.255 C 210.280 338.153, 208.823 340.399, 206.946 345.282 C 203.927 353.134, 201.581 356.343, 202.606 351.221 C 202.970 349.401, 202.782 347.442, 202.172 346.707 C 201.396 345.772, 201.474 344.307, 202.452 341.461 C 204.793 334.652, 200.966 331.016, 193.451 332.908 C 191.066 333.509, 187.764 334, 186.114 334 C 184.280 334, 182.586 334.753, 181.757 335.936 C 180.418 337.849, 180.386 337.848, 179.174 335.907 C 178.312 334.527, 176.985 333.998, 174.723 334.132 C 172.950 334.237, 170.150 334.045, 168.500 333.705 C 166.850 333.365, 159.216 334.079, 151.535 335.293 C 137.616 337.493, 137.563 337.512, 135.221 340.993 C 133.929 342.914, 129.525 346.621, 125.436 349.230 C 119.465 353.039, 118 354.462, 118 356.452 C 118 359.226, 120.510 361, 124.434 361 C 127.895 361, 127.667 361.968, 123.404 365.369 C 120.428 367.743, 119.883 368.747, 120.240 371.184 C 120.615 373.738, 120.097 374.526, 116.336 377.113 C 112.946 379.445, 112 380.713, 112 382.926 C 112 384.482, 112.612 386.263, 113.360 386.884 C 114.135 387.527, 114.515 389.088, 114.242 390.512 C 113.489 394.453, 115.722 396.306, 120.461 395.672 C 128.121 394.647, 149.203 389.942, 152.719 388.473 C 157.090 386.646, 156.684 386.565, 157.222 389.380 C 157.642 391.576, 157.286 391.806, 152.615 392.359 C 148.632 392.831, 146.888 393.656, 144.439 396.229 C 142.727 398.028, 139.629 400.796, 137.553 402.380 C 134.219 404.926, 133.843 405.643, 134.315 408.552 C 134.689 410.858, 134.422 412.008, 133.424 412.391 C 132.641 412.691, 132 413.894, 132 415.064 C 132 418.557, 129.163 422.299, 123.858 425.805 C 119.316 428.806, 118.883 429.421, 119.147 432.489 C 119.378 435.169, 118.876 436.309, 116.719 438.006 C 111.150 442.387, 114.936 448.250, 125.370 451.404 C 133.002 453.710, 137.565 452.932, 139.831 448.938 C 140.917 447.025, 142.024 446.202, 143 446.584 C 143.825 446.908, 147.650 447.558, 151.500 448.031 C 155.350 448.503, 160.845 449.450, 163.712 450.135 C 168.362 451.245, 169.133 451.190, 170.868 449.619 C 171.938 448.651, 175.443 447.176, 178.657 446.342 C 185.891 444.465, 187.483 443.074, 189.563 436.811 C 190.468 434.087, 191.724 431.737, 192.354 431.591 C 192.984 431.444, 195.706 430.607, 198.403 429.731 C 202.922 428.262, 203.478 428.267, 205.494 429.788 L 207.682 431.438 205.341 437.199 C 200.932 448.049, 202.621 451.155, 211.831 449.137 C 226.495 445.923, 230.857 445.128, 235.474 444.826 C 240.302 444.510, 240.454 444.583, 240.670 447.333 C 240.986 451.354, 242.885 453.271, 245.943 452.657 C 262.080 449.416, 266.164 447.468, 267.434 442.405 C 268.245 439.174, 269.626 439.376, 271.500 443 C 272.353 444.650, 273.602 446.055, 274.276 446.122 C 274.949 446.190, 277.676 446.359, 280.336 446.498 C 283.377 446.657, 286.238 447.539, 288.045 448.875 C 291.366 451.330, 294.459 451.524, 298 449.500 C 299.375 448.714, 303.200 448.044, 306.500 448.012 C 310.596 447.971, 314.404 447.142, 318.500 445.398 C 327.885 441.403, 327.740 441.410, 327.223 444.935 C 326.637 448.930, 328.601 451.321, 331.943 450.680 C 358.638 445.563, 366.921 442.771, 373.323 436.732 C 375.426 434.748, 378.734 431.915, 380.673 430.436 C 383.643 428.170, 384.110 427.299, 383.632 424.912 C 383.321 423.353, 383.501 421.809, 384.033 421.480 C 385.351 420.665, 385.258 415.658, 383.899 414.299 C 382.719 413.119, 384.227 407.354, 386.717 403.527 C 389.484 399.274, 387.747 394.032, 383.550 393.970 C 381.667 393.942, 381.644 393.855, 383.264 392.912 C 384.583 392.144, 385.439 392.296, 386.658 393.515 C 387.668 394.525, 389.152 394.928, 390.561 394.574 C 391.812 394.260, 393.884 394.396, 395.167 394.875 C 396.883 395.516, 399.605 394.973, 405.454 392.824 C 422.099 386.705, 432.543 379.053, 435.102 371.101 C 435.739 369.120, 436.714 366.929, 437.268 366.232 C 437.842 365.509, 438.038 362.356, 437.724 358.896 C 437.106 352.082, 438.588 347.270, 441.928 345.242 C 445.040 343.351, 444.685 338.615, 441.250 336.214 C 439.738 335.157, 437.212 333.980, 435.637 333.598 C 432.110 332.744, 422.774 334.584, 417.790 337.116 C 413.028 339.534, 413 339.528, 413 336.122 C 413 331.380, 411.220 330.704, 401.802 331.872 C 397.236 332.438, 389.762 333.578, 385.193 334.404 C 380.419 335.268, 375.953 335.571, 374.693 335.118 C 373.487 334.683, 371.375 334.659, 370 335.064 C 368.625 335.469, 366.038 335.845, 364.250 335.900 C 361.479 335.985, 361 335.654, 361 333.655 C 361 329.155, 358.033 327.786, 349.844 328.508 C 345.805 328.865, 340.925 329.748, 339 330.470 C 337.075 331.193, 335.275 331.786, 335 331.789 C 332.045 331.818, 322.124 333.446, 320.840 334.113 C 319.787 334.659, 318.167 334.449, 316.411 333.538 C 314.889 332.749, 313.274 332.331, 312.822 332.610 C 312.370 332.890, 312 332.622, 312 332.015 C 312 331.409, 312.563 331.041, 313.250 331.199 C 314.618 331.513, 320.819 327.089, 325.093 322.750 C 327.941 319.859, 330 319.198, 330 321.174 C 330 323.192, 334.772 317.972, 335.260 315.421 C 335.795 312.622, 334.428 312.312, 331.277 314.518 M 317.143 320.143 C 316.438 321.271, 316.081 322.414, 316.350 322.683 C 316.618 322.952, 317.361 322.194, 318 321 C 318.639 319.806, 318.996 318.663, 318.793 318.460 C 318.590 318.257, 317.848 319.014, 317.143 320.143 M 245.614 321.563 C 245.284 322.423, 244.673 322.920, 244.257 322.666 C 243.841 322.413, 242.712 323.258, 241.749 324.543 C 240.785 325.828, 240.367 327.109, 240.819 327.388 C 242.341 328.329, 248 324.094, 248 322.015 C 248 319.628, 246.468 319.338, 245.614 321.563 M 299.163 324.088 C 298.513 325.845, 298.204 325.951, 297.214 324.758 C 295.405 322.578, 290.443 323.733, 289.117 326.643 C 288.502 327.991, 288 329.433, 288 329.846 C 288 331.174, 295.134 329.815, 295.684 328.382 C 296.299 326.778, 299 326.500, 299 328.039 C 299 328.639, 299.588 328.533, 300.389 327.789 C 301.396 326.855, 301.465 326.298, 300.639 325.765 C 299.819 325.236, 299.850 325.026, 300.750 325.015 C 301.438 325.007, 302 324.325, 302 323.500 C 302 321.278, 300.053 321.682, 299.163 324.088 M 267.406 327.369 C 264.149 328.560, 263.578 329.273, 264.279 331.275 C 264.587 332.154, 265.266 332.005, 266.683 330.750 C 267.769 329.788, 269.129 329, 269.706 329 C 270.283 329, 271.315 328.325, 272 327.500 C 273.512 325.679, 272.139 325.640, 267.406 327.369 M 350 334.112 C 347.525 334.586, 344.078 335.168, 342.340 335.404 C 340.603 335.640, 338.231 336.341, 337.070 336.963 C 335.909 337.584, 334.533 337.829, 334.012 337.507 C 332.117 336.336, 322.845 338.229, 322.342 339.890 C 322.074 340.776, 321.237 342.924, 320.484 344.665 C 318.867 348.400, 320.028 349.344, 325.011 348.348 C 328.940 347.562, 329.066 350.004, 325.250 352.972 C 323.292 354.494, 323.129 354.807, 324.684 354.055 C 327.955 352.475, 328.101 352.706, 326.076 356.250 C 325.055 358.038, 323.698 361.148, 323.061 363.162 C 322.424 365.175, 321.150 367.112, 320.230 367.465 C 318.790 368.018, 318.762 368.237, 320.028 369.031 C 320.838 369.539, 322.400 369.711, 323.500 369.413 C 324.708 369.086, 324.244 369.708, 322.327 370.985 C 320.238 372.377, 318.616 374.680, 317.577 377.727 C 315.611 383.497, 315.598 383.338, 318 382.710 C 320.829 381.970, 320.480 382.701, 317.190 384.402 C 313.944 386.080, 310.675 393.830, 313.819 392.393 C 314.743 391.970, 317.615 391.722, 320.200 391.840 C 323.980 392.014, 325.105 391.672, 325.950 390.094 C 327.338 387.501, 327.276 386.726, 325.750 387.588 C 325.063 387.976, 325.588 387.240, 326.917 385.953 C 329.548 383.403, 328.400 382.180, 325.055 383.970 C 321.345 385.956, 322.907 384.243, 327.396 381.403 C 329.814 379.873, 331.600 378.122, 331.366 377.512 C 330.859 376.191, 337.607 357.179, 339.313 355.122 C 340.286 353.949, 339.960 353.966, 337.500 355.219 C 331.239 358.407, 329.724 358.045, 335 354.621 C 338.025 352.657, 339.903 351.040, 339.173 351.026 C 336.425 350.973, 343.840 345, 346.673 344.985 C 350.298 344.965, 351.024 344.381, 353.750 339.299 C 356.062 334.988, 356.568 332.905, 355.250 333.125 C 354.837 333.194, 352.475 333.638, 350 334.112 M 255.278 337.250 C 254.144 338.716, 252.885 342, 253.458 342 C 253.676 342, 254.527 340.650, 255.350 339 C 256.926 335.842, 256.897 335.157, 255.278 337.250 M 401.500 337.097 C 394.700 338.570, 391.650 339.098, 387.500 339.521 C 380.982 340.186, 376.757 341.090, 377.358 341.691 C 377.668 342.001, 377.295 343.752, 376.530 345.582 C 375.247 348.653, 375.289 348.957, 377.070 349.522 C 378.131 349.859, 379.900 349.849, 381 349.500 C 384.020 348.542, 383.529 351.432, 380.250 353.919 C 378.738 355.066, 378.288 355.731, 379.250 355.396 C 381.451 354.629, 381.439 355.341, 379.142 361.388 C 378.064 364.228, 376.282 366.828, 374.893 367.590 C 372.602 368.848, 372.661 368.892, 376.292 368.631 L 380.084 368.358 377.606 370.429 C 375.608 372.098, 372 378.703, 372 380.690 C 372 380.934, 373.012 380.856, 374.250 380.514 C 376.223 379.970, 376.171 380.108, 373.826 381.632 C 370.387 383.869, 366.787 391.486, 370.152 389.406 C 370.786 389.014, 373.486 388.771, 376.152 388.865 C 379.425 388.981, 381.049 388.625, 381.152 387.768 C 381.236 387.071, 381.360 386.050, 381.429 385.500 C 381.497 384.950, 381.924 383.908, 382.377 383.183 C 383.579 381.261, 382.481 380.672, 380.086 381.954 C 376.242 384.011, 377.949 382.157, 381.989 379.886 C 384.183 378.653, 385.783 377.449, 385.545 377.211 C 385.306 376.973, 386.858 371.881, 388.993 365.896 L 392.876 355.013 389.845 356.580 C 385.106 359.031, 385.368 357.492, 390.181 354.607 C 392.556 353.184, 393.959 352.015, 393.298 352.009 C 390.691 351.989, 396.794 347.129, 400.238 346.483 C 403.184 345.931, 404.307 345.023, 405.952 341.867 C 409.210 335.618, 409.061 335.458, 401.500 337.097 M 194 338 C 192.625 338.440, 190.037 338.845, 188.250 338.900 C 186.373 338.958, 184.997 339.528, 184.994 340.250 C 184.990 340.938, 184.342 342.738, 183.553 344.250 C 182.764 345.762, 182.261 347, 182.434 347 C 182.608 347, 186.181 345.436, 190.375 343.525 C 195.023 341.407, 198 339.455, 198 338.525 C 198 336.857, 197.695 336.817, 194 338 M 346.500 338 C 345.718 339.266, 347.042 339.266, 349 338 C 350.293 337.165, 350.266 337.029, 348.809 337.015 C 347.879 337.007, 346.840 337.450, 346.500 338 M 269 339.500 C 267.625 340.286, 265.038 340.945, 263.250 340.965 C 261.462 340.984, 260 341.113, 259.999 341.250 C 259.999 341.387, 259.080 343.918, 257.957 346.873 C 256.048 351.895, 256.032 352.205, 257.707 351.610 C 258.853 351.203, 258.610 351.670, 257.033 352.905 C 255.675 353.967, 254.050 356.336, 253.420 358.168 L 252.275 361.500 250.967 357.209 C 250.027 354.127, 249.244 353.076, 248.188 353.481 C 246.921 353.967, 246.910 353.808, 248.109 352.336 C 249.350 350.810, 249.284 350.700, 247.500 351.315 C 245.633 351.959, 245.617 351.914, 247.267 350.630 C 250.317 348.257, 248.471 346.428, 243.229 346.631 C 240.628 346.731, 238.231 346.855, 237.902 346.906 C 237.573 346.958, 236.598 348.796, 235.736 350.990 C 234.174 354.967, 234.176 354.977, 236.334 353.901 C 238.063 353.040, 237.963 353.294, 235.836 355.161 C 233.532 357.184, 231.715 360.628, 231.549 363.286 C 231.522 363.719, 230.825 364.500, 230 365.021 C 229.175 365.543, 228.893 365.976, 229.372 365.985 C 229.852 365.993, 229.627 366.749, 228.872 367.664 C 227.621 369.181, 227.721 369.220, 230 368.107 C 232.486 366.894, 232.488 366.897, 230.430 368.708 C 227.808 371.015, 225.563 377.112, 227.007 378.004 C 227.586 378.362, 226.948 379.225, 225.553 379.972 C 224.186 380.703, 223.275 381.636, 223.527 382.044 C 223.780 382.453, 223.309 384.410, 222.480 386.394 C 221.059 389.794, 221.081 390, 222.861 390 C 223.899 390, 226.653 389.328, 228.981 388.507 C 231.308 387.686, 233.615 387.262, 234.106 387.566 C 234.598 387.870, 235 387.522, 235 386.794 C 235 386.066, 235.892 383.807, 236.981 381.774 C 238.779 378.420, 238.802 378.128, 237.231 378.620 C 235.625 379.124, 235.627 379.058, 237.267 377.709 C 238.239 376.909, 239.751 374.153, 240.626 371.584 C 242.005 367.536, 242.379 367.136, 243.431 368.575 C 244.561 370.120, 244.871 370.118, 247.915 368.544 C 252.638 366.102, 252.724 367.255, 248.050 370.348 C 244.615 372.621, 244.182 373.302, 244.934 375.244 C 245.833 377.566, 246.100 377.636, 249.500 376.451 C 251.251 375.841, 250.031 376.986, 246.245 379.506 C 246.106 379.599, 246.500 381.136, 247.122 382.921 C 248.057 385.603, 248.623 386.049, 250.377 385.490 C 251.545 385.118, 253.639 384.593, 255.032 384.325 C 257.109 383.925, 257.968 382.678, 259.817 377.380 C 261.056 373.829, 261.822 370.521, 261.519 370.030 C 261.215 369.539, 261.762 368.544, 262.733 367.818 C 263.705 367.093, 264.552 365.600, 264.615 364.500 C 264.678 363.400, 265.094 361.634, 265.538 360.576 C 266.214 358.971, 266.029 358.766, 264.424 359.340 C 263 359.848, 263.150 359.509, 265 358.035 C 266.375 356.940, 267.725 356.034, 268 356.022 C 268.275 356.010, 268.578 354.988, 268.673 353.750 C 269.123 347.886, 269.813 344.930, 271.091 343.390 C 272.200 342.054, 271.571 342.157, 267.992 343.901 C 263.679 346.002, 263.607 346.007, 266.172 344.018 C 271.690 339.740, 273.470 338.067, 272.500 338.069 C 271.950 338.070, 270.375 338.714, 269 339.500 M 426.718 339.092 C 421.976 340.208, 418.123 342.184, 414.120 345.553 C 410.604 348.511, 409.907 350.655, 413 349 C 416.829 346.951, 414.967 348.813, 410 352 C 407.250 353.765, 405 355.314, 405 355.443 C 405 355.573, 406.449 355.592, 408.220 355.487 C 411.381 355.299, 411.399 355.323, 409.220 356.770 C 407.999 357.580, 407 358.702, 407 359.262 C 407 359.822, 406.212 360.901, 405.250 361.660 C 404.288 362.419, 406.087 361.930, 409.250 360.575 C 412.413 359.219, 415 358.304, 415 358.541 C 415 358.778, 413.207 360.158, 411.016 361.608 C 406.485 364.607, 406.595 365.646, 411.546 366.575 C 418.519 367.883, 416.893 370.874, 407.511 373.996 C 401.768 375.908, 400 377.348, 400 380.117 C 400 380.694, 400.764 380.662, 401.933 380.036 C 402.996 379.467, 405.133 378.562, 406.683 378.026 C 410.001 376.876, 409.478 377.279, 399.532 383.528 L 392.564 387.906 397.032 387.512 C 401.113 387.151, 401.332 387.242, 399.559 388.559 C 397.013 390.449, 397.486 390.384, 403.833 387.972 C 417.628 382.729, 426.400 376.879, 429.585 370.800 C 431.379 367.376, 431.479 363.612, 429.750 364.588 C 428.750 365.152, 428.750 365.024, 429.750 363.947 C 430.438 363.206, 431 361.778, 431 360.774 C 431 359.056, 430.819 359.042, 427.907 360.548 C 426.206 361.428, 424.589 361.922, 424.314 361.647 C 424.039 361.372, 425.206 360.428, 426.907 359.548 C 430.355 357.765, 430.922 356.946, 428.220 357.653 C 426.026 358.227, 421 356.414, 421 355.048 C 421 353.449, 425.850 350.710, 429.825 350.063 C 432.413 349.643, 433.585 348.891, 433.842 347.485 C 434.043 346.393, 434.948 344.651, 435.853 343.613 C 437.457 341.776, 437.416 341.770, 434.300 343.363 C 429.806 345.662, 428.867 345.372, 432.750 342.885 C 436.360 340.573, 436.774 339.511, 434.418 338.607 C 432.519 337.878, 431.633 337.934, 426.718 339.092 M 157.865 339.468 C 157.608 339.725, 155.620 340.640, 153.449 341.500 C 149.781 342.952, 149.642 342.947, 151.500 341.428 L 153.500 339.793 151.500 340.313 C 150.400 340.598, 147.328 341.128, 144.673 341.489 C 140.595 342.044, 139.698 342.567, 138.900 344.858 C 138.380 346.349, 136.502 348.359, 134.727 349.323 C 132.952 350.288, 130.375 351.967, 129 353.055 C 126.512 355.023, 126.522 355.023, 131.250 353.052 C 135.786 351.161, 137.925 351.780, 134.250 353.920 C 131.488 355.529, 133.778 355.166, 137.043 353.478 C 138.662 352.641, 141.227 351.508, 142.743 350.961 L 145.500 349.967 143 351.945 C 141.625 353.033, 139.047 354.713, 137.270 355.678 C 134.985 356.920, 133.601 358.723, 132.538 361.844 C 131.711 364.269, 130.239 366.897, 129.267 367.682 C 127.674 368.969, 127.730 368.998, 129.836 367.974 C 132.693 366.584, 133.951 367.420, 131.211 368.887 C 130.132 369.464, 129.006 370.869, 128.708 372.009 C 128.252 373.752, 128.511 373.982, 130.333 373.451 C 131.525 373.103, 129.912 374.469, 126.750 376.487 C 123.588 378.504, 121 380.339, 121 380.564 C 121 380.790, 123.475 379.880, 126.500 378.542 C 132.782 375.764, 133.517 375.899, 128.614 378.930 C 126.751 380.081, 124.993 381.918, 124.707 383.011 C 124.064 385.473, 124.156 385.471, 129.137 382.930 C 135.438 379.715, 134.710 381.274, 127.773 385.847 C 124.323 388.121, 121.755 389.986, 122.066 389.991 C 127.236 390.074, 148.088 384.922, 153.458 382.236 C 159.208 379.359, 168.618 370.418, 164.791 371.467 C 162.827 372.006, 162.750 371.939, 164.250 370.998 C 165.213 370.394, 166 369.123, 166 368.173 C 166 367.223, 166.734 365.398, 167.630 364.118 C 169.204 361.871, 169.189 361.828, 167.197 362.894 C 166.063 363.502, 163.867 364.456, 162.317 365.016 L 159.500 366.033 162 364.039 C 163.375 362.942, 164.893 362.034, 165.372 362.022 C 165.852 362.010, 165.686 361.327, 165.003 360.504 C 163.975 359.265, 164.380 358.322, 167.355 355.029 C 170.754 351.266, 172.880 346.547, 171.706 345.372 C 171.412 345.078, 170.120 345.350, 168.836 345.975 L 166.500 347.113 168.707 345.181 C 169.922 344.118, 170.645 342.978, 170.314 342.648 C 169.984 342.317, 170.533 341.733, 171.534 341.349 C 173.264 340.685, 173.259 340.613, 171.427 339.895 C 169.300 339.062, 158.608 338.725, 157.865 339.468 M 289.011 340.867 L 279.522 342.500 278.936 346.139 L 278.351 349.779 282.758 347.889 C 289.238 345.112, 289.186 345.547, 282.500 350.028 C 279.200 352.240, 276.628 354.536, 276.785 355.130 C 276.942 355.724, 276.512 356.884, 275.829 357.706 C 275.146 358.529, 274.483 359.719, 274.356 360.351 C 273.735 363.427, 269.041 373.359, 267.851 374.113 C 265.568 375.560, 268.341 375.020, 271 373.500 C 274.905 371.268, 275.884 371.788, 272.208 374.142 C 268.187 376.716, 268.654 377.747, 272.857 375.574 C 278.374 372.721, 277.604 373.950, 271.250 378.138 C 267.279 380.756, 265 382.941, 265 384.129 C 265 386.346, 265.663 386.408, 269 384.500 C 272.657 382.410, 273.571 382.693, 270.861 385.076 C 269.562 386.218, 269.025 386.890, 269.667 386.568 C 270.309 386.247, 274.446 385.354, 278.859 384.583 C 286.845 383.189, 298.776 378.189, 301.236 375.206 C 302.343 373.863, 302.228 373.817, 300.317 374.835 C 297.454 376.361, 293 378.044, 293 377.601 C 293 377.409, 296.600 374.889, 301 372 C 308.710 366.938, 311.427 364.637, 306.750 367.129 C 304.728 368.206, 304.636 368.163, 305.840 366.702 C 306.577 365.809, 307.959 364.830, 308.910 364.529 C 310.951 363.881, 313.586 358.726, 314.577 353.439 C 315.215 350.040, 315.101 349.741, 313.392 350.341 C 311.618 350.964, 311.609 350.920, 313.250 349.642 C 314.212 348.893, 315 347.542, 315 346.640 C 315 345.738, 315.525 345, 316.167 345 C 316.808 345, 317.077 344.744, 316.764 344.430 C 316.450 344.117, 314.238 344.811, 311.847 345.973 L 307.500 348.085 310.461 345.587 C 312.089 344.213, 313.213 342.880, 312.958 342.625 C 312.703 342.370, 309.173 343.700, 305.113 345.581 C 301.053 347.461, 297.454 348.996, 297.115 348.991 C 296.777 348.986, 299.334 347.113, 302.798 344.830 C 312.119 338.685, 308.216 337.563, 289.011 340.867 M 400 340 C 399.175 340.533, 398.950 340.969, 399.500 340.969 C 400.050 340.969, 401.175 340.533, 402 340 C 402.825 339.467, 403.050 339.031, 402.500 339.031 C 401.950 339.031, 400.825 339.467, 400 340 M 219.828 340.903 C 216.708 341.237, 213.956 341.734, 213.713 342.006 C 213.470 342.278, 212.324 345.068, 211.166 348.207 C 209.258 353.379, 209.222 353.861, 210.780 353.352 C 211.726 353.042, 211.259 353.658, 209.742 354.720 C 208.225 355.782, 207.246 356.912, 207.566 357.232 C 207.886 357.552, 207.412 359.236, 206.513 360.975 C 204.920 364.055, 204.930 364.108, 206.872 363.068 C 209.517 361.653, 214 359.964, 214 360.383 C 214 360.566, 211.211 362.437, 207.801 364.542 C 204.392 366.646, 202.080 368.527, 202.664 368.721 C 204.077 369.192, 199.440 382.092, 197.261 383.750 C 195.007 385.465, 196.479 385.321, 200.043 383.478 C 203.798 381.536, 208 379.933, 208 380.443 C 208 380.660, 206.385 381.835, 204.411 383.055 C 200.414 385.525, 201.184 386.969, 206.500 386.969 C 210.720 386.969, 211.417 386.269, 213.926 379.512 C 215.149 376.219, 216.630 372.946, 217.216 372.239 C 218.039 371.248, 217.850 371.092, 216.391 371.559 C 214.723 372.092, 214.683 372.006, 216.046 370.832 C 217.982 369.164, 223.388 354.437, 222.558 353.093 C 222.220 352.547, 222.840 351.621, 223.935 351.035 C 225.050 350.438, 225.687 349.349, 225.384 348.559 C 225.069 347.738, 225.933 346.435, 227.453 345.439 C 230.925 343.164, 229.986 342.439, 226.143 344.426 C 221.789 346.677, 220.918 346.339, 224.750 343.885 C 228.032 341.783, 229.052 339.876, 226.750 340.147 C 226.063 340.228, 222.947 340.568, 219.828 340.903 M 364.331 340.734 C 358.454 341.149, 357.905 341.635, 355.642 348.428 C 353.674 354.336, 353.678 354.282, 355.250 353.483 C 355.938 353.133, 355.542 353.698, 354.371 354.736 C 352.226 356.639, 350.128 363.030, 351.671 362.965 C 352.127 362.945, 353.625 362.286, 355 361.500 C 360.422 358.401, 358.947 360.232, 352.905 364.103 C 345.796 368.656, 343.506 370.497, 346.250 369.452 C 347.212 369.086, 348 369.042, 348 369.355 C 348 371.016, 343.523 381.751, 342.196 383.272 C 340.720 384.963, 340.829 384.970, 344.575 383.411 C 346.734 382.513, 349.738 381.141, 351.250 380.363 C 355.503 378.176, 354.501 379.499, 349.518 382.652 C 344.668 385.720, 345.193 386.785, 351.628 386.930 C 355.399 387.014, 356.027 386.272, 358.959 378.250 C 360.216 374.813, 361.714 372, 362.289 372 C 362.863 372, 363.072 371.739, 362.752 371.419 C 362.433 371.099, 361.120 371.355, 359.836 371.986 L 357.500 373.134 359.733 371.317 C 362.441 369.113, 368.603 353.002, 366.739 352.996 C 366.058 352.994, 366.962 352.101, 368.750 351.011 C 370.538 349.921, 372 348.771, 372 348.456 C 372 348.140, 371.550 348.160, 371 348.500 C 368.565 350.005, 370.314 346.888, 373.250 344.491 C 375.075 343.001, 375.543 342.311, 374.317 342.918 C 373.117 343.512, 370.867 344.451, 369.317 345.005 C 366.690 345.944, 366.631 345.910, 368.441 344.506 C 369.509 343.678, 370.698 343, 371.084 343 C 371.470 343, 372.045 342.325, 372.362 341.500 C 372.747 340.495, 372.371 340.061, 371.219 340.185 C 370.273 340.287, 367.174 340.534, 364.331 340.734 M 334 342 C 333.175 342.533, 332.950 342.969, 333.500 342.969 C 334.050 342.969, 335.175 342.533, 336 342 C 336.825 341.467, 337.050 341.031, 336.500 341.031 C 335.950 341.031, 334.825 341.467, 334 342 M 422.441 343.555 C 420.577 345.049, 420.589 345.067, 422.750 344.020 C 423.988 343.420, 425 342.720, 425 342.465 C 425 341.700, 424.481 341.921, 422.441 343.555 M 186.828 348.841 C 177.659 354.825, 175.454 356.530, 178.299 355.439 C 179.844 354.846, 179.914 355.090, 178.929 357.636 C 175.676 366.044, 171 379.366, 171 380.226 C 171 380.770, 171.787 380.950, 172.750 380.628 C 174.126 380.167, 174.073 380.348, 172.500 381.477 C 171.400 382.267, 169.600 383.631, 168.500 384.508 C 166.538 386.073, 166.545 386.091, 168.849 385.453 L 171.197 384.803 169.099 386.901 C 166.210 389.790, 166.384 391.185, 169.486 390.005 C 170.854 389.485, 173.441 389.114, 175.236 389.180 C 177.031 389.247, 180.395 388.333, 182.710 387.151 C 187.261 384.826, 188.415 384.520, 187.589 385.856 C 187.298 386.326, 188.059 386.520, 189.280 386.286 C 190.687 386.016, 192.535 384.005, 194.327 380.792 L 197.153 375.724 191.077 376.412 C 187.735 376.790, 185 376.936, 185 376.737 C 185 376.538, 186.321 372.466, 187.937 367.688 C 189.552 362.909, 190.647 359, 190.371 359 C 190.095 359, 188.886 359.490, 187.684 360.089 C 186.209 360.824, 186.474 360.349, 188.500 358.625 C 190.150 357.221, 191.785 356.056, 192.133 356.036 C 192.482 356.016, 192.993 355.134, 193.270 354.075 C 193.646 352.639, 193.358 352.278, 192.137 352.656 C 190.735 353.091, 190.752 352.956, 192.254 351.718 C 193.944 350.326, 196.616 344.275, 195.866 343.540 C 195.665 343.343, 191.598 345.729, 186.828 348.841 M 336 344.500 C 334.625 345.286, 333.950 345.929, 334.500 345.929 C 335.050 345.929, 336.625 345.286, 338 344.500 C 339.375 343.714, 340.050 343.071, 339.500 343.071 C 338.950 343.071, 337.375 343.714, 336 344.500 M 388.507 343.989 C 388.157 344.555, 388.558 344.723, 389.448 344.382 C 391.180 343.717, 391.497 343, 390.059 343 C 389.541 343, 388.843 343.445, 388.507 343.989 M 390.105 346.085 C 388.787 346.612, 387.960 347.294, 388.266 347.600 C 388.573 347.906, 390.100 347.464, 391.662 346.618 C 394.803 344.916, 393.846 344.588, 390.105 346.085 M 216 347 C 215.099 347.582, 214.975 347.975, 215.691 347.985 C 216.346 347.993, 217.160 347.550, 217.500 347 C 218.267 345.758, 217.921 345.758, 216 347 M 360 347 C 359.175 347.533, 358.950 347.969, 359.500 347.969 C 360.050 347.969, 361.175 347.533, 362 347 C 362.825 346.467, 363.050 346.031, 362.500 346.031 C 361.950 346.031, 360.825 346.467, 360 347 M 420 349.500 C 418.625 350.286, 417.950 350.929, 418.500 350.929 C 419.050 350.929, 420.625 350.286, 422 349.500 C 423.375 348.714, 424.050 348.071, 423.500 348.071 C 422.950 348.071, 421.375 348.714, 420 349.500 M 347 351.559 C 347 352.416, 347.450 352.840, 348 352.500 C 348.550 352.160, 349 351.459, 349 350.941 C 349 350.423, 348.550 350, 348 350 C 347.450 350, 347 350.702, 347 351.559 M 150.263 353.250 C 150.500 353.938, 148.175 356.186, 145.097 358.247 C 142.018 360.308, 139.783 361.995, 140.129 361.997 C 141.944 362.006, 152.827 356.359, 154.886 354.340 L 157.273 352 153.553 352 C 151.015 352, 149.970 352.397, 150.263 353.250 M 290.423 356.250 C 288.858 357.488, 285.310 359.951, 282.538 361.724 C 276.487 365.597, 277.048 365.838, 284.471 362.555 C 287.512 361.210, 290 360.513, 290 361.005 C 290 361.498, 289.246 362.322, 288.325 362.838 C 287.404 363.353, 286.547 364.388, 286.422 365.138 C 286.296 365.887, 285.889 367.257, 285.516 368.181 C 284.910 369.686, 285.221 369.745, 288.490 368.742 C 294.646 366.852, 299.778 358.848, 296.989 355.487 C 295.291 353.440, 293.751 353.619, 290.423 356.250 M 304 355.500 C 302.625 356.286, 301.950 356.929, 302.500 356.929 C 303.050 356.929, 304.625 356.286, 306 355.500 C 307.375 354.714, 308.050 354.071, 307.500 354.071 C 306.950 354.071, 305.375 354.714, 304 355.500 M 260 357 C 259.175 357.533, 258.950 357.969, 259.500 357.969 C 260.050 357.969, 261.175 357.533, 262 357 C 262.825 356.467, 263.050 356.031, 262.500 356.031 C 261.950 356.031, 260.825 356.467, 260 357 M 240 358.500 C 238.625 359.286, 237.950 359.929, 238.500 359.929 C 239.050 359.929, 240.625 359.286, 242 358.500 C 243.375 357.714, 244.050 357.071, 243.500 357.071 C 242.950 357.071, 241.375 357.714, 240 358.500 M 197.405 358.803 C 196.831 359.186, 195.602 361.430, 194.674 363.789 C 193.007 368.022, 193.011 368.064, 194.992 367.004 C 196.097 366.413, 197 365.418, 197 364.794 C 197 364.169, 197.652 362.937, 198.449 362.056 C 200.004 360.338, 199.139 357.643, 197.405 358.803 M 342.630 359.789 C 341.302 361.939, 340.109 366, 340.806 366 C 341.651 366, 344.182 359.849, 343.583 359.249 C 343.372 359.039, 342.944 359.282, 342.630 359.789 M 243.507 360.989 C 243.157 361.555, 243.558 361.723, 244.448 361.382 C 246.180 360.717, 246.497 360, 245.059 360 C 244.541 360, 243.843 360.445, 243.507 360.989 M 331.250 362.031 C 330.012 362.529, 329 363.175, 329 363.468 C 329 364.438, 330.592 364.020, 332.559 362.532 C 334.771 360.858, 334.462 360.740, 331.250 362.031 M 369.959 363.076 C 368.940 364.981, 369.022 365.059, 370.952 364.026 C 372.109 363.406, 372.792 362.472, 372.469 361.950 C 371.616 360.570, 371.201 360.756, 369.959 363.076 M 385 362.500 C 383.625 363.286, 382.976 363.945, 383.559 363.965 C 384.141 363.984, 385.491 363.339, 386.559 362.532 C 389.028 360.664, 388.239 360.648, 385 362.500 M 180.441 366.555 C 178.611 368.022, 178.643 368.042, 181 366.920 C 184.061 365.462, 184.628 365, 183.358 365 C 182.821 365, 181.509 365.700, 180.441 366.555 M 209.441 367.450 C 207.568 368.849, 207.580 368.880, 209.766 368.330 C 211.012 368.016, 212.276 367.363, 212.575 366.879 C 213.420 365.511, 211.591 365.844, 209.441 367.450 M 354 367.500 C 352.625 368.286, 351.950 368.929, 352.500 368.929 C 353.050 368.929, 354.625 368.286, 356 367.500 C 357.375 366.714, 358.050 366.071, 357.500 366.071 C 356.950 366.071, 355.375 366.714, 354 367.500 M 393.198 368.862 C 392.690 370.319, 392.480 372.913, 392.732 374.627 C 393.091 377.077, 392.608 378.282, 390.474 380.261 C 388.981 381.646, 387.926 383.267, 388.130 383.864 C 388.739 385.652, 394.714 380.278, 395.466 377.265 C 395.845 375.744, 396.823 373.760, 397.638 372.855 C 398.961 371.386, 398.852 370.943, 396.621 368.711 L 394.122 366.212 393.198 368.862 M 143.807 369.750 C 140.964 373.061, 141.033 373.612, 144.263 373.389 C 149.116 373.053, 151.772 368, 147.096 368 C 146.114 368, 144.634 368.788, 143.807 369.750 M 211 371 C 210.175 371.533, 209.950 371.969, 210.500 371.969 C 211.050 371.969, 212.175 371.533, 213 371 C 213.825 370.467, 214.050 370.031, 213.500 370.031 C 212.950 370.031, 211.825 370.467, 211 371 M 355.507 370.989 C 355.157 371.555, 355.558 371.723, 356.448 371.382 C 358.180 370.717, 358.497 370, 357.059 370 C 356.541 370, 355.843 370.445, 355.507 370.989 M 418 372 C 416.075 373.054, 415.085 373.935, 415.800 373.958 C 417.244 374.005, 423 371.220, 423 370.474 C 423 369.615, 421.548 370.058, 418 372 M 179 372 C 178.175 372.533, 177.950 372.969, 178.500 372.969 C 179.050 372.969, 180.175 372.533, 181 372 C 181.825 371.467, 182.050 371.031, 181.500 371.031 C 180.950 371.031, 179.825 371.467, 179 372 M 283 376 C 282.175 376.533, 281.950 376.969, 282.500 376.969 C 283.050 376.969, 284.175 376.533, 285 376 C 285.825 375.467, 286.050 375.031, 285.500 375.031 C 284.950 375.031, 283.825 375.467, 283 376 M 307.446 376.087 C 306.534 377.563, 307.474 378.217, 309.953 377.831 C 312.054 377.504, 312.055 377.486, 310.086 376.270 C 308.731 375.435, 307.886 375.376, 307.446 376.087 M 364.449 378.500 C 363.652 380.425, 362.363 383.540, 361.584 385.422 C 359.589 390.241, 356.141 392.217, 350.305 391.883 C 346.024 391.639, 345.536 391.821, 345.834 393.554 C 346.379 396.734, 347.354 397.071, 352.947 396.010 C 355.876 395.455, 359.787 395, 361.636 395 C 365.267 395, 365.476 394.758, 364.087 392.162 C 363.460 390.991, 363.930 388.293, 365.587 383.556 C 368.306 375.781, 368.430 375, 366.949 375 C 366.371 375, 365.246 376.575, 364.449 378.500 M 146 378.500 C 144.625 379.286, 143.976 379.945, 144.559 379.965 C 145.141 379.984, 146.491 379.339, 147.559 378.532 C 150.028 376.664, 149.239 376.648, 146 378.500 M 300.407 382.147 C 297.284 384.267, 292.990 386.522, 290.864 387.159 C 285.696 388.707, 285.584 391.508, 290.656 392.332 C 294.407 392.940, 300 397.343, 300 399.687 C 300 400.409, 300.381 401, 300.847 401 C 301.313 401, 302.101 401.864, 302.597 402.920 C 303.455 404.743, 303.671 404.695, 306.885 401.984 C 310.019 399.340, 310.149 399.007, 308.635 397.493 C 307.736 396.593, 307 395.115, 307 394.208 C 307 391.223, 309.438 382, 310.227 382 C 312.189 382, 310.721 379.180, 308.542 378.763 C 306.820 378.434, 304.385 379.447, 300.407 382.147 M 510.729 379.604 C 510.328 380.005, 510 381.023, 510 381.867 C 510 382.992, 510.296 383.104, 511.113 382.288 C 511.724 381.676, 512.053 380.658, 511.842 380.025 C 511.631 379.392, 511.130 379.203, 510.729 379.604 M 240.498 386.500 C 240.144 387.600, 239.503 389.175, 239.074 390 C 238.426 391.246, 239.038 391.440, 242.695 391.145 C 246.264 390.858, 246.808 390.574, 245.570 389.645 C 244.730 389.015, 243.391 387.600, 242.593 386.500 L 241.143 384.500 240.498 386.500 M 332 388.454 C 332 389.214, 331.727 390.548, 331.393 391.418 C 330.973 392.513, 331.358 392.995, 332.643 392.985 C 336.031 392.957, 336.626 391.598, 334.263 389.286 C 332.738 387.794, 332 387.522, 332 388.454 M 290 388.787 C 290 389.220, 291.007 389.650, 292.237 389.743 C 293.996 389.875, 294.156 389.710, 292.987 388.971 C 291.159 387.815, 290 387.744, 290 388.787 M 253.500 390 C 251.728 390.762, 251.813 390.867, 254.250 390.930 C 255.762 390.968, 257 390.550, 257 390 C 257 388.826, 256.231 388.826, 253.500 390 M 272 391.802 C 268.312 393.150, 267.919 393.510, 269.823 393.802 C 271.100 393.998, 272.900 393.835, 273.823 393.440 C 274.745 393.045, 276.179 392.643, 277.008 392.546 C 277.838 392.449, 279.413 391.850, 280.508 391.215 C 282.330 390.159, 282.244 390.065, 279.500 390.109 C 277.850 390.136, 274.475 390.898, 272 391.802 M 181.755 392.956 C 179.349 393.948, 178.008 395.158, 178.005 396.340 C 178.002 397.352, 176.650 399.365, 175 400.813 C 173.350 402.261, 172 404.034, 172 404.753 C 172 406.851, 177.984 401.910, 178.649 399.263 C 179.367 396.402, 182.627 394.025, 185.973 393.923 C 187.363 393.881, 190.300 393.247, 192.500 392.515 L 196.500 391.183 191 391.298 C 187.975 391.361, 183.815 392.107, 181.755 392.956 M 232.199 392.986 C 230.384 393.416, 228.584 394.098, 228.199 394.501 C 227.320 395.422, 233.975 394.070, 236 392.916 C 237.780 391.901, 236.695 391.922, 232.199 392.986 M 204 395.637 C 195.381 396.893, 184.389 399.487, 183.765 400.411 C 182.430 402.391, 182.970 403.086, 185 402 C 188.113 400.334, 187.354 401.679, 183.750 404.214 C 181.963 405.471, 180.493 406.950, 180.485 407.500 C 180.440 410.583, 176.464 419.822, 174.352 421.750 C 171.471 424.382, 171.957 424.591, 176.043 422.478 C 179.730 420.571, 184 418.930, 184 419.421 C 184 419.625, 181.798 421.204, 179.107 422.931 C 176.416 424.658, 173.993 426.842, 173.721 427.785 C 173.449 428.728, 172.883 430.339, 172.462 431.365 C 171.804 432.970, 172.034 433.132, 174.099 432.526 C 175.748 432.043, 175.247 432.677, 172.500 434.551 C 167.352 438.064, 165.992 439.312, 168.250 438.452 C 170.386 437.639, 170.394 437.813, 168.440 442.488 L 166.881 446.221 169.690 444.235 C 171.236 443.142, 174.075 441.934, 176 441.550 C 182.064 440.339, 182.669 440.021, 183.848 437.434 C 185.380 434.071, 185.308 433.668, 183.309 434.435 C 182.351 434.802, 182.785 434.002, 184.309 432.590 C 185.789 431.218, 187 429.436, 187 428.631 C 187 427.680, 188.774 426.785, 192.050 426.083 C 198.654 424.666, 202.642 422.594, 207.335 418.140 C 213.192 412.580, 217.191 403.355, 215.131 400.156 C 214.416 399.045, 213.721 399.093, 211.139 400.428 C 207.295 402.416, 203 404.079, 203 403.579 C 203 403.375, 205.332 401.712, 208.182 399.883 C 213.081 396.740, 213.231 396.521, 210.932 395.879 C 208.244 395.128, 207.637 395.107, 204 395.637 M 222.750 395.662 C 223.438 395.940, 224.563 395.940, 225.250 395.662 C 225.938 395.385, 225.375 395.158, 224 395.158 C 222.625 395.158, 222.063 395.385, 222.750 395.662 M 154.516 397.100 C 151.776 397.541, 149.359 398.424, 149.145 399.064 C 148.770 400.191, 147.687 401.241, 143.500 404.536 C 141.539 406.080, 141.543 406.090, 143.683 405.056 C 144.883 404.476, 147.133 403.544, 148.683 402.984 L 151.500 401.967 149 403.961 C 147.625 405.058, 146.194 405.966, 145.821 405.978 C 145.447 405.990, 143.771 408.031, 142.096 410.513 L 139.051 415.025 142.025 413.487 C 146.191 411.333, 145.734 412.486, 141.245 415.456 C 139.180 416.823, 136.377 419.980, 135.016 422.471 C 133.655 424.962, 132.281 427, 131.962 427 C 131.643 427, 130.509 427.678, 129.441 428.506 C 127.625 429.915, 127.678 429.948, 130.257 429.028 C 131.773 428.487, 134.410 427.322, 136.117 426.440 C 140.454 424.197, 138.864 426.266, 133.746 429.525 C 129.269 432.375, 122.101 441.087, 125.909 439.049 C 130.013 436.852, 130.301 438.138, 126.250 440.566 C 123.912 441.967, 122 443.449, 122 443.859 C 122 444.752, 130.792 448.012, 133.183 448.005 C 134.701 448, 136.398 445.159, 136.497 442.457 C 136.592 439.857, 141.849 435.830, 145.847 435.294 C 150.510 434.668, 151.237 435.854, 147.750 438.397 C 146.232 439.504, 146.870 439.381, 149.710 438.019 C 155.143 435.414, 156.395 435.461, 152.250 438.115 C 147.613 441.085, 148.004 442.997, 153.250 443.014 C 155.588 443.021, 158.492 443.293, 159.705 443.618 C 162.090 444.258, 162.288 443.811, 163.468 435.131 C 163.996 431.245, 163.865 430.831, 162.281 431.383 C 160.759 431.914, 160.791 431.748, 162.500 430.249 C 163.600 429.283, 164.607 427.482, 164.738 426.247 C 165.011 423.673, 165.001 423.669, 161.565 424.975 C 158.007 426.328, 158.361 425.574, 162.404 423.189 C 164.276 422.085, 165.745 420.578, 165.668 419.840 C 165.479 418.029, 166.991 404.073, 167.690 401.184 C 168.249 398.873, 168.242 398.872, 164.471 400.448 C 159.510 402.521, 158.982 401.792, 163.447 399.033 C 165.401 397.825, 167 396.744, 167 396.631 C 167 396.086, 158.944 396.388, 154.516 397.100 M 245.622 396.717 C 245.500 396.836, 242.723 398.087, 239.450 399.497 C 234.570 401.601, 233.946 401.710, 235.980 400.103 L 238.460 398.144 233.480 399.117 C 230.741 399.652, 227.488 400.303, 226.250 400.564 C 225.012 400.825, 224 401.726, 224 402.567 C 224 403.408, 222.785 405.222, 221.300 406.598 L 218.599 409.101 223.300 407.086 C 229.141 404.582, 229.314 405.099, 223.750 408.434 C 221.412 409.835, 219.818 410.985, 220.206 410.991 C 220.594 410.996, 220.260 412.847, 219.463 415.104 C 218.115 418.925, 218.135 419.162, 219.758 418.545 C 222.056 417.670, 220.556 419.020, 215.518 422.360 C 210.783 425.499, 211.516 425.798, 217.040 422.980 C 222.030 420.434, 222.140 421.153, 217.268 424.464 C 215.215 425.859, 213.881 427, 214.303 427 C 214.725 427, 214.552 427.968, 213.919 429.152 C 212.937 430.987, 213.005 431.208, 214.384 430.652 C 218.838 428.856, 219.390 428.905, 217 430.885 C 215.625 432.024, 214.174 432.966, 213.776 432.978 C 213.377 432.990, 212.376 434.306, 211.550 435.903 C 210.231 438.455, 210.227 438.873, 211.525 439.371 C 212.336 439.682, 213.787 439.678, 214.750 439.360 C 215.713 439.043, 214.475 440.218, 212 441.970 C 209.525 443.723, 208.404 444.901, 209.509 444.588 C 215.767 442.814, 229.995 440.038, 233 440.004 C 235.402 439.978, 237.246 439.179, 238.878 437.459 L 241.256 434.952 238.430 436.027 C 236.061 436.927, 236.364 436.431, 240.302 432.966 C 245.657 428.252, 246.127 427.062, 242.351 427.784 C 240.462 428.145, 239.915 427.947, 240.442 427.094 C 240.893 426.364, 239.684 426.564, 237.341 427.606 C 235.228 428.546, 231.800 429.518, 229.722 429.765 L 225.945 430.215 227.202 427.358 C 228.872 423.562, 229.286 423.339, 236.122 422.566 C 241.288 421.981, 242.182 421.549, 243.500 419 C 245.492 415.148, 245.404 414.745, 242.750 415.536 C 240.531 416.198, 240.528 416.185, 242.500 414.588 C 244.460 413.002, 244.449 412.978, 242 413.422 C 240.625 413.670, 237.555 414.138, 235.177 414.460 C 231.114 415.012, 230.874 414.910, 231.177 412.773 C 231.497 410.521, 233.008 409.962, 245.500 407.473 C 246.600 407.254, 248.056 406.174, 248.735 405.074 C 249.811 403.333, 249.746 403.157, 248.235 403.714 C 247.281 404.066, 247.963 402.969, 249.750 401.276 C 253.973 397.276, 253.886 395.939, 249.422 396.251 C 247.454 396.388, 245.744 396.597, 245.622 396.717 M 277 398.062 C 275.075 398.532, 270.959 399.407, 267.854 400.008 C 263.658 400.818, 262.078 401.595, 261.702 403.032 C 261.268 404.693, 261.477 404.815, 263.184 403.902 C 267.403 401.644, 265.826 403.903, 261.038 406.976 C 255.872 410.291, 254.718 411.429, 257.674 410.295 C 258.855 409.842, 259.189 410.071, 258.810 411.076 C 258.514 411.859, 257.238 415.425, 255.975 419 C 254.711 422.575, 252.738 426.313, 251.589 427.307 C 249.831 428.827, 250.179 428.781, 253.784 427.019 C 259.089 424.425, 263 422.917, 263 423.463 C 263 423.691, 260.300 425.544, 257 427.581 C 253.700 429.618, 250.997 431.783, 250.994 432.392 C 250.990 433.001, 250.341 434.740, 249.551 436.255 C 248.198 438.849, 248.223 438.951, 249.991 438.005 C 253.361 436.201, 253.488 436.945, 250.288 439.750 C 246.458 443.108, 244.798 447.475, 247.651 446.686 C 248.668 446.405, 251.300 445.886, 253.500 445.534 C 260.176 444.465, 260.951 444.005, 262.911 439.947 C 264.787 436.065, 264.786 436.044, 262.815 437.099 C 261.722 437.684, 260.643 437.976, 260.416 437.749 C 260.189 437.522, 261.049 436.776, 262.328 436.092 C 263.607 435.408, 265.210 433.307, 265.891 431.424 C 267.875 425.939, 270.155 426.965, 273.696 434.935 C 276.309 440.816, 277.089 441.790, 278.823 441.336 C 279.948 441.042, 282.514 441.345, 284.526 442.009 C 289.823 443.757, 290.403 442.408, 287.518 435.046 C 285.174 429.065, 285.131 428.618, 286.765 427.304 C 287.719 426.538, 286.544 426.862, 284.153 428.025 C 279.223 430.423, 277.616 430.137, 281.547 427.561 C 283.043 426.581, 283.929 425.258, 283.624 424.461 C 283.318 423.665, 284.289 422.219, 285.899 421.072 C 289.812 418.285, 294.713 411.818, 292.288 412.640 C 290.916 413.105, 290.994 412.876, 292.625 411.654 C 295.182 409.738, 296.632 405.526, 294.427 406.421 C 290.305 408.093, 289.821 407.970, 292.750 405.995 C 296.647 403.367, 296.735 402.644, 293.545 399.455 C 290.729 396.638, 287.467 396.360, 282.346 398.500 C 277.828 400.388, 277.094 400.396, 279.559 398.532 C 281.740 396.882, 281.791 396.891, 277 398.062 M 330.115 400.536 C 321.029 404.798, 320.215 404.872, 326 400.908 L 330.500 397.825 326.500 398.465 C 316.163 400.119, 303.644 409.563, 298.167 419.837 C 296.425 423.106, 295 426.482, 295 427.340 C 295 428.198, 294.212 429.407, 293.250 430.026 C 291.238 431.319, 292.564 430.955, 298.500 428.583 C 302.369 427.037, 302.420 427.043, 300.054 428.743 C 293.559 433.410, 293.531 433.454, 294.951 436.881 C 296.008 439.434, 296.676 439.929, 298.382 439.422 C 300.483 438.798, 300.484 438.806, 298.500 440.365 C 297.071 441.487, 296.912 441.945, 297.941 441.968 C 298.990 441.991, 298.854 442.419, 297.441 443.543 C 296.374 444.391, 297.848 443.941, 300.717 442.543 C 306.626 439.662, 308.444 439.319, 305.500 441.640 C 303.622 443.121, 303.804 443.189, 308.500 442.757 C 315.375 442.126, 322.176 438.657, 329.091 432.255 C 335.628 426.203, 338.687 421.773, 340.448 415.811 C 341.361 412.717, 342.411 411.447, 344.926 410.389 C 347.805 409.179, 348.140 409.193, 347.637 410.504 C 346.929 412.350, 347.766 412.349, 351 410.500 C 355.809 407.751, 355.429 409.030, 350.438 412.391 C 346.659 414.936, 345.107 416.745, 344.216 419.641 C 343.400 422.298, 343.359 423.611, 344.085 423.857 C 344.666 424.053, 344.209 424.866, 343.070 425.663 C 340.507 427.459, 340.274 430.166, 342.750 429.385 C 343.712 429.081, 342.091 430.417, 339.146 432.353 C 332.637 436.634, 331.405 437.811, 335.743 435.605 C 337.527 434.698, 340.227 433.508, 341.743 432.961 L 344.500 431.967 342 433.961 C 340.625 435.058, 339.215 435.966, 338.867 435.978 C 338.518 435.990, 338.008 436.862, 337.733 437.915 C 337.239 439.801, 337.298 439.801, 341.699 437.915 C 348.235 435.113, 348.197 435.532, 341.500 440.088 L 335.500 444.170 340.500 443.517 C 350.268 442.240, 361.424 438.937, 366.098 435.937 C 371.031 432.772, 375.079 428, 372.832 428 C 372.072 428, 372.207 427.532, 373.193 426.750 C 374.059 426.063, 374.979 424.282, 375.237 422.793 C 375.644 420.446, 375.469 420.214, 373.919 421.043 C 370.905 422.656, 370.359 422.064, 372.993 420.040 C 375.229 418.322, 375.304 418.054, 373.722 417.447 C 372.193 416.860, 372.494 416.188, 375.979 412.407 C 378.190 410.008, 380 407.135, 380 406.022 C 380 403.701, 379.680 403.608, 376.684 405.055 C 374.535 406.093, 374.532 406.084, 376.500 404.485 C 377.600 403.590, 378.369 402.385, 378.209 401.807 C 378.039 401.191, 378.637 401.031, 379.653 401.420 C 381.221 402.022, 381.210 401.889, 379.539 400.043 C 377.378 397.655, 372.324 397.399, 367 399.409 C 359.394 402.280, 359.379 402.284, 361 401.012 C 362.194 400.075, 361.683 399.951, 358.500 400.406 C 356.300 400.721, 353.767 400.983, 352.871 400.989 C 351.976 400.995, 350.708 402.292, 350.054 403.870 C 348.732 407.060, 344.943 409.320, 340.732 409.429 C 338.465 409.487, 338.239 409.299, 339.482 408.390 C 341.079 407.222, 341.400 405.206, 340.403 402.607 C 339.862 401.199, 339.517 401.198, 336.810 402.598 C 335.162 403.450, 333.592 403.926, 333.321 403.655 C 333.050 403.384, 333.711 402.690, 334.789 402.113 C 335.868 401.536, 336.989 400.149, 337.281 399.032 C 337.574 397.914, 337.742 397.016, 337.656 397.036 C 337.570 397.056, 334.177 398.631, 330.115 400.536 M 282 401 C 281.175 401.533, 280.950 401.969, 281.500 401.969 C 282.050 401.969, 283.175 401.533, 284 401 C 284.825 400.467, 285.050 400.031, 284.500 400.031 C 283.950 400.031, 282.825 400.467, 282 401 M 285.530 403.060 C 283.346 404.149, 281.096 405.530, 280.530 406.128 C 279.649 407.058, 289.755 402.438, 290.917 401.380 C 292.024 400.371, 289.081 401.289, 285.530 403.060 M 232.750 404.572 C 231.238 405.393, 230 406.265, 230 406.510 C 230 407.069, 235.164 404.907, 236.450 403.810 C 238.017 402.474, 235.760 402.939, 232.750 404.572 M 157.099 406.554 C 155.228 407.366, 153.948 408.281, 154.254 408.588 C 154.561 408.894, 156.541 408.232, 158.656 407.116 C 163.115 404.764, 162.083 404.391, 157.099 406.554 M 236 406 C 235.175 406.533, 234.950 406.969, 235.500 406.969 C 236.050 406.969, 237.175 406.533, 238 406 C 238.825 405.467, 239.050 405.031, 238.500 405.031 C 237.950 405.031, 236.825 405.467, 236 406 M 187.250 408.491 C 185.463 409.268, 184 410.127, 184 410.400 C 184 411.173, 189.936 408.913, 190.561 407.902 C 191.262 406.768, 191.182 406.782, 187.250 408.491 M 193.423 411.531 C 192.576 413.558, 192.108 415.442, 192.384 415.717 C 193.385 416.718, 199.100 411.758, 198.791 410.156 C 198.160 406.876, 195.033 407.677, 193.423 411.531 M 205 409 C 204.175 409.533, 203.950 409.969, 204.500 409.969 C 205.050 409.969, 206.175 409.533, 207 409 C 207.825 408.467, 208.050 408.031, 207.500 408.031 C 206.950 408.031, 205.825 408.467, 205 409 M 311.507 408.989 C 311.157 409.555, 311.558 409.723, 312.448 409.382 C 314.180 408.717, 314.497 408, 313.059 408 C 312.541 408, 311.843 408.445, 311.507 408.989 M 272.774 411.750 C 270.594 414.235, 271.853 416.993, 274.685 415.932 C 277.030 415.053, 279.336 411.670, 278.298 410.631 C 277.103 409.437, 274.307 410.003, 272.774 411.750 M 360.500 411 C 360.160 411.550, 360.238 412, 360.673 412 C 361.108 412, 359.672 413.188, 357.482 414.640 C 351.602 418.539, 351.011 419.391, 355.500 417.502 C 357.700 416.576, 360.175 415.555, 361 415.234 C 361.825 414.912, 363.491 413.603, 364.702 412.325 L 366.905 410 364.011 410 C 362.420 410, 360.840 410.450, 360.500 411 M 171 412 C 171 412.550, 171.702 413, 172.559 413 C 173.416 413, 173.840 412.550, 173.500 412 C 173.160 411.450, 172.459 411, 171.941 411 C 171.423 411, 171 411.450, 171 412 M 186 413 C 185.175 413.533, 184.950 413.969, 185.500 413.969 C 186.050 413.969, 187.175 413.533, 188 413 C 188.825 412.467, 189.050 412.031, 188.500 412.031 C 187.950 412.031, 186.825 412.467, 186 413 M 150.171 418.500 L 147.192 424 149.596 424 C 151.303 424, 152 423.441, 152 422.072 C 152 421.012, 153.463 418.951, 155.250 417.491 C 157.079 415.998, 157.545 415.310, 156.316 415.919 C 153.344 417.390, 153.107 417.306, 153.710 415 C 154.635 411.464, 153.229 412.855, 150.171 418.500 M 316.375 414.779 C 313.658 416.980, 311.060 421.091, 310.478 424.112 C 310.228 425.411, 309.006 427.279, 307.762 428.264 L 305.500 430.055 308.322 428.834 C 310.491 427.896, 311.313 427.888, 311.876 428.799 C 313.197 430.937, 321.212 426.006, 323.692 421.529 C 326.218 416.969, 326.083 416.405, 322.836 417.948 C 320.303 419.151, 320.272 419.180, 326.309 414.764 C 327.910 413.592, 327.565 413.418, 323.309 413.249 C 320.022 413.118, 317.827 413.602, 316.375 414.779 M 321.507 414.989 C 321.157 415.555, 321.558 415.723, 322.448 415.382 C 324.180 414.717, 324.497 414, 323.059 414 C 322.541 414, 321.843 414.445, 321.507 414.989 M 200.250 417.031 C 199.012 417.529, 198 418.175, 198 418.468 C 198 419.438, 199.592 419.020, 201.559 417.532 C 203.771 415.858, 203.462 415.740, 200.250 417.031 M 279.105 417.085 C 277.787 417.612, 276.960 418.294, 277.266 418.600 C 277.573 418.906, 279.100 418.464, 280.662 417.618 C 283.803 415.916, 282.846 415.588, 279.105 417.085 M 259.441 419.450 C 257.568 420.849, 257.580 420.880, 259.766 420.330 C 261.012 420.016, 262.276 419.363, 262.575 418.879 C 263.420 417.511, 261.591 417.844, 259.441 419.450 M 281 419 C 280.175 419.533, 279.950 419.969, 280.500 419.969 C 281.050 419.969, 282.175 419.533, 283 419 C 283.825 418.467, 284.050 418.031, 283.500 418.031 C 282.950 418.031, 281.825 418.467, 281 419 M 227.507 419.989 C 227.157 420.555, 227.558 420.723, 228.448 420.382 C 230.180 419.717, 230.497 419, 229.059 419 C 228.541 419, 227.843 419.445, 227.507 419.989 M 330.250 423.031 C 329.012 423.529, 328 424.175, 328 424.468 C 328 425.438, 329.592 425.020, 331.559 423.532 C 333.771 421.858, 333.462 421.740, 330.250 423.031 M 354.278 426.250 C 351.990 429.208, 351.981 429.878, 354.228 429.765 C 356.581 429.647, 360 427.325, 360 425.845 C 360 424.525, 355.358 424.854, 354.278 426.250 M 140 430.500 C 138.625 431.286, 137.950 431.929, 138.500 431.929 C 139.050 431.929, 140.625 431.286, 142 430.500 C 143.375 429.714, 144.050 429.071, 143.500 429.071 C 142.950 429.071, 141.375 429.714, 140 430.500 M 258.441 430.555 C 256.611 432.022, 256.643 432.042, 259 430.920 C 262.061 429.462, 262.628 429, 261.358 429 C 260.821 429, 259.509 429.700, 258.441 430.555 M 319 433 C 317.075 434.054, 315.860 434.935, 316.300 434.958 C 317.359 435.014, 323 432.081, 323 431.474 C 323 430.820, 322.941 430.842, 319 433 M 219 434 C 218.175 434.533, 217.950 434.969, 218.500 434.969 C 219.050 434.969, 220.175 434.533, 221 434 C 221.825 433.467, 222.050 433.031, 221.500 433.031 C 220.950 433.031, 219.825 433.467, 219 434 M 356.250 434.031 C 355.012 434.529, 354 435.133, 354 435.374 C 354 436.118, 357.998 434.812, 358.575 433.879 C 359.211 432.850, 359.184 432.852, 356.250 434.031 M 156 507.500 C 156.685 508.325, 157.695 509, 158.245 509 C 158.803 509, 158.694 508.337, 158 507.500 C 157.315 506.675, 156.305 506, 155.755 506 C 155.197 506, 155.306 506.663, 156 507.500 M 175.768 516.168 C 176.350 516.750, 177.415 517.028, 178.137 516.788 C 178.886 516.538, 178.432 516.085, 177.080 515.731 C 175.417 515.296, 175.026 515.426, 175.768 516.168 M 182.558 516.907 C 182.249 517.405, 182.898 517.578, 183.999 517.290 C 186.334 516.679, 186.629 516, 184.559 516 C 183.766 516, 182.866 516.408, 182.558 516.907 M 199.496 522.193 C 199.585 523.399, 200.196 524.490, 200.854 524.618 C 201.512 524.746, 201.637 524.637, 201.131 524.377 C 200.626 524.117, 200.442 523.026, 200.723 521.952 C 201.004 520.878, 200.806 520, 200.284 520 C 199.762 520, 199.407 520.987, 199.496 522.193 M 271.150 529.950 C 271.370 530.610, 271.876 531.116, 272.275 531.075 C 273.471 530.951, 273.239 529.580, 271.950 529.150 C 271.290 528.930, 270.930 529.290, 271.150 529.950 M 263.500 531 C 263.840 531.550, 265.329 531.968, 266.809 531.930 C 269.212 531.867, 269.286 531.767, 267.500 531 C 264.722 529.806, 262.762 529.806, 263.500 531" stroke="none" fill="black" fill-rule="evenodd"/>
</svg>